<?xml version="1.0" encoding="utf-8"?>
<COLLADA xmlns="http://www.collada.org/2005/11/COLLADASchema" version="1.4.1">
  <asset>
    <contributor>
      <author>Shadowth117</author>
      <authoring_tool>3dsMax 11 - Feeling ColladaMax v3.05B.</authoring_tool>
      <comments>ColladaMax Export Options: ExportNormals=1;ExportEPolyAsTriangles=0;ExportXRefs=1;ExportSelected=0;ExportTangents=0;ExportAnimations=1;SampleAnim=0;ExportAnimClip=0;BakeMatrices=0;ExportRelativePaths=1;AnimStart=0;AnimEnd=3.33333;</comments>
      <source_data>file:///F:/Softwrap/YOYOGAMESGM70FINAL/Pre%20Nuke%20HD%20files/Public%20Documents/Documents/Spriter%27s%20resource/Models/Sonic%20The%20Hedgehog%20%282006%29/Objects/Dashpad/Dashpad.max</source_data>
    </contributor>
    <created>2010-11-17T01:22:56Z</created>
    <modified>2010-11-17T01:22:56Z</modified>
    <unit meter="0.0254" name="inch"/>
    <up_axis>Z_UP</up_axis>
  </asset>
  <library_images>
    <image id="cmn_dashpanel01_dfsp_j.png" name="cmn_dashpanel01_dfsp_j_png">
      <init_from>./cmn_dashpanel01_dfsp_j.png</init_from>
    </image>
    <image id="cmn_dashpanel01_dfsp_j_alpha.png" name="cmn_dashpanel01_dfsp_j_alpha_png">
      <init_from>./cmn_dashpanel01_dfsp_j%20alpha.png</init_from>
    </image>
    <image id="cmn_dashpanel02_dfsp_j.png" name="cmn_dashpanel02_dfsp_j_png">
      <init_from>./cmn_dashpanel02_dfsp_j.png</init_from>
    </image>
    <image id="cmn_dashpanel02_dfsp_j_alpha.png" name="cmn_dashpanel02_dfsp_j_alpha_png">
      <init_from>./cmn_dashpanel02_dfsp_j%20alpha.png</init_from>
    </image>
  </library_images>
  <library_materials>
    <material id="Standardmaterial2" name="Standardmaterial2">
      <instance_effect url="#Standardmaterial2-fx"/>
    </material>
    <material id="Standardmaterial1" name="Standardmaterial1">
      <instance_effect url="#Standardmaterial1-fx"/>
    </material>
  </library_materials>
  <library_effects>
    <effect id="Standardmaterial2-fx" name="Standardmaterial2">
      <profile_COMMON>
        <newparam sid="cmn_dashpanel01_dfsp_j_png-surface">
          <surface type="2D">
            <init_from>cmn_dashpanel01_dfsp_j.png</init_from>
            <format>A8R8G8B8</format>
          </surface>
        </newparam>
        <newparam sid="cmn_dashpanel01_dfsp_j_png-sampler">
          <sampler2D>
            <source>cmn_dashpanel01_dfsp_j_png-surface</source>
            <wrap_s>WRAP</wrap_s>
            <wrap_t>WRAP</wrap_t>
            <minfilter>NONE</minfilter>
            <magfilter>NONE</magfilter>
            <mipfilter>NONE</mipfilter>
          </sampler2D>
        </newparam>
        <newparam sid="cmn_dashpanel01_dfsp_j_alpha_png-surface">
          <surface type="2D">
            <init_from>cmn_dashpanel01_dfsp_j_alpha.png</init_from>
            <format>A8R8G8B8</format>
          </surface>
        </newparam>
        <newparam sid="cmn_dashpanel01_dfsp_j_alpha_png-sampler">
          <sampler2D>
            <source>cmn_dashpanel01_dfsp_j_alpha_png-surface</source>
            <wrap_s>WRAP</wrap_s>
            <wrap_t>WRAP</wrap_t>
            <minfilter>NONE</minfilter>
            <magfilter>NONE</magfilter>
            <mipfilter>NONE</mipfilter>
          </sampler2D>
        </newparam>
        <technique sid="common">
          <blinn>
            <ambient>
              <color>0.588 0.588 0.588 1</color>
            </ambient>
            <diffuse>
              <texture texture="cmn_dashpanel01_dfsp_j_png-sampler" texcoord="CHANNEL1">
                <extra>
                  <technique profile="MAYA">
                    <mirrorU>0</mirrorU>
                    <mirrorV>0</mirrorV>
                    <wrapU>1</wrapU>
                    <wrapV>1</wrapV>
                    <repeatU>1</repeatU>
                    <repeatV>1</repeatV>
                    <offsetU>0</offsetU>
                    <offsetV>0</offsetV>
                    <rotateUV>0</rotateUV>
                  </technique>
                  <technique profile="MAX3D">
                    <amount>1</amount>
                  </technique>
                </extra>
              </texture>
            </diffuse>
            <specular>
              <color>0.9 0.9 0.9 1</color>
            </specular>
            <shininess>
              <float>0.415939</float>
            </shininess>
            <reflective>
              <color>0 0 0 1</color>
            </reflective>
            <reflectivity>
              <float>1</float>
            </reflectivity>
            <transparent opaque="A_ONE">
              <color>1 1 1 1</color>
            </transparent>
            <transparency>
              <float>1</float>
            </transparency>
          </blinn>
          <extra>
            <technique profile="FCOLLADA">
              <spec_level>
                <texture texture="cmn_dashpanel01_dfsp_j_alpha_png-sampler" texcoord="CHANNEL1">
                  <extra>
                    <technique profile="MAYA">
                      <mirrorU>0</mirrorU>
                      <mirrorV>0</mirrorV>
                      <wrapU>1</wrapU>
                      <wrapV>1</wrapV>
                      <repeatU>1</repeatU>
                      <repeatV>1</repeatV>
                      <offsetU>0</offsetU>
                      <offsetV>0</offsetV>
                      <rotateUV>0</rotateUV>
                    </technique>
                    <technique profile="MAX3D">
                      <amount>1</amount>
                    </technique>
                  </extra>
                </texture>
              </spec_level>
              <emission_level>
                <float>0</float>
              </emission_level>
            </technique>
          </extra>
        </technique>
      </profile_COMMON>
      <extra>
        <technique profile="MAX3D">
          <faceted>0</faceted>
          <double_sided>0</double_sided>
          <wireframe>0</wireframe>
          <face_map>0</face_map>
        </technique>
      </extra>
    </effect>
    <effect id="Standardmaterial1-fx" name="Standardmaterial1">
      <profile_COMMON>
        <newparam sid="cmn_dashpanel02_dfsp_j_png-surface">
          <surface type="2D">
            <init_from>cmn_dashpanel02_dfsp_j.png</init_from>
            <format>A8R8G8B8</format>
          </surface>
        </newparam>
        <newparam sid="cmn_dashpanel02_dfsp_j_png-sampler">
          <sampler2D>
            <source>cmn_dashpanel02_dfsp_j_png-surface</source>
            <wrap_s>WRAP</wrap_s>
            <wrap_t>WRAP</wrap_t>
            <minfilter>NONE</minfilter>
            <magfilter>NONE</magfilter>
            <mipfilter>NONE</mipfilter>
          </sampler2D>
        </newparam>
        <newparam sid="cmn_dashpanel02_dfsp_j_alpha_png-surface">
          <surface type="2D">
            <init_from>cmn_dashpanel02_dfsp_j_alpha.png</init_from>
            <format>A8R8G8B8</format>
          </surface>
        </newparam>
        <newparam sid="cmn_dashpanel02_dfsp_j_alpha_png-sampler">
          <sampler2D>
            <source>cmn_dashpanel02_dfsp_j_alpha_png-surface</source>
            <wrap_s>WRAP</wrap_s>
            <wrap_t>WRAP</wrap_t>
            <minfilter>NONE</minfilter>
            <magfilter>NONE</magfilter>
            <mipfilter>NONE</mipfilter>
          </sampler2D>
        </newparam>
        <technique sid="common">
          <blinn>
            <ambient>
              <color>0.588 0.588 0.588 1</color>
            </ambient>
            <diffuse>
              <texture texture="cmn_dashpanel02_dfsp_j_png-sampler" texcoord="CHANNEL1">
                <extra>
                  <technique profile="MAYA">
                    <mirrorU>0</mirrorU>
                    <mirrorV>0</mirrorV>
                    <wrapU>1</wrapU>
                    <wrapV>1</wrapV>
                    <repeatU>1</repeatU>
                    <repeatV>1</repeatV>
                    <offsetU>0</offsetU>
                    <offsetV>0</offsetV>
                    <rotateUV>0</rotateUV>
                  </technique>
                  <technique profile="MAX3D">
                    <amount>1</amount>
                  </technique>
                </extra>
              </texture>
            </diffuse>
            <specular>
              <color>0.9 0.9 0.9 1</color>
            </specular>
            <shininess>
              <float>0.415939</float>
            </shininess>
            <reflective>
              <color>0 0 0 1</color>
            </reflective>
            <reflectivity>
              <float>1</float>
            </reflectivity>
            <transparent opaque="A_ONE">
              <color>1 1 1 1</color>
            </transparent>
            <transparency>
              <float>1</float>
            </transparency>
          </blinn>
          <extra>
            <technique profile="FCOLLADA">
              <spec_level>
                <texture texture="cmn_dashpanel02_dfsp_j_alpha_png-sampler" texcoord="CHANNEL1">
                  <extra>
                    <technique profile="MAYA">
                      <mirrorU>0</mirrorU>
                      <mirrorV>0</mirrorV>
                      <wrapU>1</wrapU>
                      <wrapV>1</wrapV>
                      <repeatU>1</repeatU>
                      <repeatV>1</repeatV>
                      <offsetU>0</offsetU>
                      <offsetV>0</offsetV>
                      <rotateUV>0</rotateUV>
                    </technique>
                    <technique profile="MAX3D">
                      <amount>1</amount>
                    </technique>
                  </extra>
                </texture>
              </spec_level>
              <emission_level>
                <float>0</float>
              </emission_level>
            </technique>
          </extra>
        </technique>
      </profile_COMMON>
      <extra>
        <technique profile="MAX3D">
          <faceted>0</faceted>
          <double_sided>0</double_sided>
          <wireframe>0</wireframe>
          <face_map>0</face_map>
        </technique>
      </extra>
    </effect>
  </library_effects>
  <library_geometries>
    <geometry id="Object01-mesh" name="Object01">
      <mesh>
        <source id="Object01-mesh-positions">
          <float_array id="Object01-mesh-positions-array" count="666">-80.3611 -103.289 -3.24867 -93.6717 -100.645 -3.28105 -77.9604 -95.7021 6.05835 -77.9604 -95.7021 6.05835 -89.7024 -93.3319 6.02772 -89.7024 -93.3319 6.02772 -78.0597 -92.6982 6.01786 -78.0597 -92.6982 6.01786 -87.8665 -91.0588 6.01786 -87.8665 -91.0588 6.01786 -77.9878 -86.0679 9.20684 -46.7495 -85.2346 -3.29076 97.2552 -85.124 -3.28262 -87.882 -84.5536 9.20684 109.063 -80.4866 -3.27257 -81.9435 -78.4739 12.4771 -44.8262 -77.9046 6.01786 -44.8262 -77.9046 6.01786 93.0406 -77.7412 6.02599 93.0406 -77.7412 6.02599 -45.3442 -75.1349 6.01786 -45.3442 -75.1349 6.01786 92.5162 -75.1349 6.01786 92.5162 -75.1349 6.01786 103.755 -73.6393 6.03593 103.755 -73.6393 6.03593 102.05 -71.377 6.01786 102.05 -71.377 6.01786 -45.3442 -69.7803 9.20684 92.4946 -69.7803 9.20684 102.069 -66.2713 9.20684 -126.289 -65.1647 -3.24912 -118.133 -64.5654 6.05867 -118.133 -64.5654 6.05867 -114.867 -63.8318 6.01786 -114.867 -63.8318 6.01786 -109.169 -61.6968 9.20684 -40.5423 -59.6958 12.4771 -101.18 -57.8846 12.4771 89.5086 -57.7708 12.4771 -114.822 -56.4838 6.01786 -114.822 -56.4838 6.01786 126.804 -56.4452 -3.28859 -117.982 -55.5994 6.04329 -117.982 -55.5994 6.04329 -126.086 -55.1148 -3.26535 -109.137 -54.5406 9.20684 -40.3594 -51.968 12.4771 -40.3594 -51.968 12.4771 -40.3594 -51.968 12.4771 -40.3594 -51.968 7.86629 -40.3594 -51.968 7.86629 -40.3594 -51.968 7.86629 -40.3594 -51.968 7.86629 89.8402 -51.968 7.86629 89.8402 -51.968 7.86629 111.32 -51.968 8.12502 111.32 -51.968 8.12502 89.8402 -51.968 12.4771 89.8402 -51.968 12.4771 106.564 -51.968 12.4771 106.564 -51.968 12.4771 114.293 -51.968 9.20684 114.293 -51.968 9.20684 121.244 -51.968 6.0166 121.244 -51.968 6.0166 121.244 -51.968 6.0166 117.408 -51.968 -4.05205 117.408 -51.968 -4.05205 117.408 -51.968 6.01785 117.408 -51.968 6.01785 117.408 -51.968 6.01785 117.408 -51.968 6.01785 117.408 -51.968 6.01785 126.915 -51.968 -3.28404 126.915 -51.968 -3.28404 -95.9454 -40.1636 9.20684 -95.9454 -40.1636 9.20684 -95.9454 -40.1636 9.20684 -95.9454 -40.1636 9.20684 -94.5675 -39.5457 5.90749 -94.5675 -39.5457 5.90749 -94.5675 -39.5457 5.90749 -84.9342 -39.5456 12.4771 -84.9342 -39.5456 12.4771 -84.9342 -39.5456 12.4771 -90.6051 -39.5456 8.20889 -90.6051 -39.5456 8.20889 -90.6051 -39.5456 8.20889 -90.6051 -39.5456 8.20889 -58.0176 -39.5456 12.4771 -58.0176 -39.5456 12.4771 -58.0176 -39.5456 12.4771 -58.0176 -39.5456 7.86629 -58.0176 -39.5456 7.86629 -58.0176 -39.5456 7.86629 -98.9539 -39.2993 6.01786 -98.9539 -39.2993 6.01786 -98.9539 -39.2993 6.01786 -100.879 -36.7882 6.01786 -100.879 -36.7882 6.01786 -94.5691 -36.7608 5.90629 -94.5691 -36.7608 5.90629 -94.5691 -36.7608 5.90629 -94.5691 -36.7608 5.90629 -95.7759 -34.0624 -3.29077 -95.7759 -34.0624 -3.29077 -104.586 -33.9822 -3.29077 117.408 -0.000022 5.75191 -94.569 0 5.90629 -94.569 0 5.90629 -95.776 0 -3.29077 -40.3594 0 7.86629 -40.3594 0 7.86629 -90.6051 0 8.20889 111.101 0 8.12502 89.8402 0 7.86629 117.408 0 -4.318 -58.0176 0 7.86629 -104.586 33.9821 -3.29076 -95.7759 34.0623 -3.29077 -95.7759 34.0623 -3.29077 -94.5692 36.7607 5.90629 -94.5692 36.7607 5.90629 -94.5692 36.7607 5.90629 -94.5692 36.7607 5.90629 -100.879 36.7881 6.01786 -100.879 36.7881 6.01786 -95.9454 39.5455 9.20684 -95.9454 39.5455 9.20684 -98.9539 39.5455 6.01785 -98.9539 39.5455 6.01785 -98.9539 39.5455 6.01785 -94.5675 39.5455 5.90749 -94.5675 39.5455 5.90749 -94.5675 39.5455 5.90749 -84.9342 39.5455 12.4771 -84.9342 39.5455 12.4771 -90.6051 39.5455 8.20889 -90.6051 39.5455 8.20889 -58.0176 39.5455 12.4771 -58.0176 39.5455 12.4771 -58.0176 39.5455 12.4771 -58.0176 39.5455 7.86629 -58.0176 39.5455 7.86629 -58.0176 39.5455 7.86629 -40.3594 52.1648 12.4771 -40.3594 52.1648 12.4771 -40.3594 52.1648 12.4771 -40.3594 52.1648 7.86629 -40.3594 52.1648 7.86629 -40.3594 52.1648 7.86629 -40.3594 52.1648 7.86629 106.564 52.1649 12.4771 106.564 52.1649 12.4771 89.8402 52.1649 12.4771 89.8402 52.1649 12.4771 111.32 52.1649 8.12502 111.32 52.1649 8.12502 89.8402 52.1649 7.86629 89.8402 52.1649 7.86629 114.293 52.1649 9.20684 114.293 52.1649 9.20684 117.408 52.1649 6.01785 117.408 52.1649 6.01785 117.408 52.1649 6.01785 117.408 52.1649 6.01785 117.408 52.1649 6.01785 126.915 52.1649 -3.28404 126.915 52.1649 -3.28404 121.244 52.1649 6.0166 121.244 52.1649 6.0166 121.244 52.1649 6.0166 117.408 52.1649 -4.05205 117.408 52.1649 -4.05205 -109.137 54.5405 9.20684 -126.086 55.1147 -3.26535 -117.982 55.5993 6.04329 -117.982 55.5993 6.04329 -114.822 56.4837 6.01786 -114.822 56.4837 6.01786 126.804 56.5761 -3.28859 89.5086 57.7708 12.4771 -101.18 57.8845 12.4771 -40.5424 59.6957 12.4771 -109.169 61.6967 9.20684 -114.867 63.8317 6.01786 -114.867 63.8317 6.01786 -118.133 64.5652 6.05867 -118.133 64.5652 6.05867 -126.289 65.1646 -3.24912 102.069 65.3692 9.20684 92.4946 69.0711 9.20684 -45.3442 69.4073 9.20684 102.05 71.004 6.01786 102.05 71.004 6.01786 103.755 73.2663 6.03593 103.755 73.2663 6.03593 -45.3442 74.7619 6.01786 -45.3442 74.7619 6.01786 92.5162 74.7619 6.01786 92.5162 74.7619 6.01786 93.0405 77.3682 6.02599 93.0405 77.3682 6.02599 -44.8263 77.5316 6.01786 -44.8263 77.5316 6.01786 -81.9435 78.1008 12.4771 109.063 80.1136 -3.27257 -87.8821 84.1806 9.20684 97.2552 84.751 -3.28262 -46.7496 84.8616 -3.29076 -77.9878 85.6949 9.20684 -87.8666 90.6858 6.01786 -87.8666 90.6858 6.01786 -78.0598 92.3251 6.01786 -78.0598 92.3251 6.01786 -89.7024 92.9589 6.02772 -89.7024 92.9589 6.02772 -77.9604 95.329 6.05835 -77.9604 95.329 6.05835 -93.6717 100.272 -3.28105 -80.3611 102.916 -3.24867</float_array>
          <technique_common>
            <accessor source="#Object01-mesh-positions-array" count="222" stride="3">
              <param name="X" type="float"/>
              <param name="Y" type="float"/>
              <param name="Z" type="float"/>
            </accessor>
          </technique_common>
        </source>
        <source id="Object01-mesh-normals">
          <float_array id="Object01-mesh-normals-array" count="621">-0.468964 -0.264859 0.842569 -0.217895 0.000831 0.975972 -0.388732 0.157127 0.907854 -0.045482 0.228836 0.972402 -0.23954 0.379259 0.893747 0.078363 0.407341 0.909908 0.022447 0.149051 0.988575 0.126574 0.432934 0.892495 0.080616 0.390611 0.917019 0.025425 0.148903 0.988525 0.275952 0.383358 0.881412 0.083477 0.48767 0.869028 0.289489 0.48013 0.828053 0.149859 0.505606 0.84965 0.058098 0.439148 0.896535 -0.18713 0.432759 0.881874 -0.436314 0.171963 0.883209 -0.520591 -0.142468 0.841836 -0.605574 -0.536302 0.587928 -0.401304 -0.35398 0.84478 -0.077724 -0.068851 0.994594 0 0 1 0 -0.000000 1 0 -0.000000 1 0.245875 0.286639 0.92595 0.540187 0.456727 0.706823 0.617966 0.503761 0.603608 0.000000 -1 0 0.000000 -1 0 0 -1 0 0 -1 0 0 -1 0.000000 0.000000 -1 0.000000 0.000000 -1 0.000000 0.000000 -1 0.000000 0 -1 0 0.000000 -1 0.000000 0.000000 -1 0 0.000000 -1 -0.000000 0.000000 -1 -0.000000 0 -1 0 0 -1 0 -0.991502 -0.000004 0.130093 -0.991501 -0.000002 0.130097 -0.991499 -0.000000 0.130117 -0.991498 -0.000000 0.130122 -0.991501 0.000002 0.130097 -0.991502 0.000003 0.130093 -0.389406 -0.155192 0.907898 -0.218249 0.003037 0.975888 -0.466121 0.262719 0.844814 -0.045634 -0.228737 0.972418 -0.241963 -0.378669 0.893344 0.07875 -0.406729 0.910148 0.021695 -0.143422 0.989424 0.122734 -0.424729 0.896962 0.077609 -0.397614 0.914265 0.023957 -0.140467 0.989796 0.30076 -0.392691 0.869101 0.244525 -0.265007 0.932727 0.546713 -0.442325 0.710953 0 0.000000 1 0 0.000000 1 0 0 1 -0.077754 0.068878 0.99459 -0.388578 0.35173 0.851642 -0.552793 0.507627 0.660859 -0.520351 0.141155 0.842205 -0.437057 -0.170569 0.883112 -0.188318 -0.432662 0.881669 0.058098 -0.439148 0.896534 0.149333 -0.505951 0.849537 0.085423 -0.512531 0.854409 0.315223 -0.508717 0.80115 0.622554 -0.4926 0.608088 0.060066 0.976293 0.207953 0.060066 0.976293 0.207953 -0.020852 0.984232 0.175647 -0.086254 0.985143 0.148505 -0.086254 0.985143 0.148505 0 0 1 0 0 1 0.004398 0 0.99999 0.005256 0 0.999986 -0.255022 0 0.966935 -0.255006 0.000014 0.966939 -0.502296 0 0.864696 -0.502269 0.000025 0.864711 -0.502243 0.000075 0.864726 0.004389 0 0.99999 0 0 1 -0.255006 -0.000014 0.966939 -0.502269 -0.000026 0.864711 -0.502243 -0.000075 0.864726 0 -1 0 0 -1 0 0 -1 0 0 -1 0 0 1 0 0 1 0 0 1 0 0 1 0 -0.091624 0.988324 0.121737 -0.091624 0.988324 0.121737 -0.091624 0.988324 0.121737 -0.000000 1 0.000000 0 1 0 0 1 0 -0.000000 1 0.000000 0.575377 0.817889 -0.000001 0.575376 0.817889 -0.000000 0.575376 0.817889 0 0.575377 0.817889 -0.000001 -0.000000 1 -0.000000 -0.000000 1 -0.000000 -0.000000 1 -0.000000 0 1 -0.000000 0 1 0 0 1 0 -0.000000 1 0 -0.000000 1 0 -0.003335 0.005217 0.999981 -0.000224 0.000286 1 0.000326 -0.000258 1 -0.003459 0.005042 0.999981 -0.00101 0.003161 0.999995 -0.000996 0.002897 0.999995 -0.00003 0.000016 1 -0.000149 0.000265 1 -0.001989 0.013152 0.999912 -0.00181 0.012649 0.999918 0.000523 0.004715 0.999989 0.000972 0.003934 0.999992 0.011227 0.004838 0.999925 0.010973 0.0042 0.999931 0.007784 -0.002527 0.999967 0.007245 -0.001508 0.999973 0.015413 0.011502 0.999815 0.009404 0.00485 0.999944 0.019698 0.005071 0.999793 0.017676 0.000439 0.999844 -0.385069 0.830645 0.402182 0.004569 0.958625 0.284636 0.008736 0.959826 0.280461 -0.297885 0.8682 0.396854 -0.728983 0.265501 0.630946 -0.703289 0.329105 0.630138 -0.722113 -0.243225 0.647607 -0.69798 -0.31462 0.643303 -0.359447 -0.660256 0.659439 -0.35407 -0.656618 0.665948 0.074095 -0.781754 0.61917 0.178411 -0.784697 0.593649 0.245046 -0.785667 0.568049 0.164305 -0.791127 0.589171 0.157773 -0.737731 0.656399 0.11842 -0.752165 0.648248 0.444266 -0.580422 0.68245 0.443023 -0.590723 0.674372 0.742034 -0.296432 0.60126 0.680737 -0.412581 0.605288 0.853626 -0.021529 0.520442 0.000326 0.000266 1 -0.000233 -0.000304 1 -0.003294 -0.005246 0.999981 -0.003425 -0.005069 0.999981 -0.00101 -0.003161 0.999995 -0.000996 -0.002897 0.999995 -0.00003 -0.000016 1 -0.000149 -0.000265 1 -0.001989 -0.013152 0.999912 -0.00181 -0.012649 0.999918 0.000511 -0.004726 0.999989 0.000965 -0.003942 0.999992 0.011212 -0.004897 0.999925 0.010965 -0.004228 0.999931 0.007771 0.00257 0.999966 0.007222 0.001517 0.999973 0.01439 -0.009737 0.999849 0.009647 -0.004592 0.999943 0.019637 -0.004929 0.999795 0.017676 -0.000439 0.999844 0.008736 -0.959826 0.280461 0.004569 -0.958625 0.284637 -0.385069 -0.830645 0.402182 -0.297885 -0.8682 0.396854 -0.728983 -0.265501 0.630946 -0.703289 -0.329105 0.630138 -0.721765 0.244799 0.647402 -0.697004 0.317329 0.64303 -0.357704 0.661435 0.659205 -0.351613 0.657944 0.665942 0.074094 0.781754 0.61917 0.178411 0.784697 0.593649 0.245046 0.785667 0.568049 0.164304 0.791127 0.589171 0.157773 0.737731 0.6564 0.118419 0.752164 0.648248 0.441619 0.582459 0.682432 0.439611 0.593828 0.673878 0.740575 0.300339 0.60112 0.676027 0.422051 0.604037 0.85362 0.021851 0.520438 0.581431 -0.813596 -0.000001 0.58143 -0.813596 -0.000000 0.581431 -0.813596 -0.000001 0.58143 -0.813596 0</float_array>
          <technique_common>
            <accessor source="#Object01-mesh-normals-array" count="207" stride="3">
              <param name="X" type="float"/>
              <param name="Y" type="float"/>
              <param name="Z" type="float"/>
            </accessor>
          </technique_common>
        </source>
        <source id="Object01-mesh-map-channel1">
          <float_array id="Object01-mesh-map-channel1-array" count="666">0.99589 0.195658 0 0.995874 0.172174 0 0.932767 0.193368 0 0.932767 0.193368 0 0.932766 0.175505 0 0.932766 0.175505 0 0.918487 0.193391 0 0.918487 0.193391 0 0.918486 0.175449 0 0.918486 0.175449 0 0.89452 0.193577 0 0.995887 0.366627 0 0.995887 0.867524 0 0.89452 0.175404 0 0.995887 0.889605 0 0.826198 0.196563 0 0.932767 0.366623 0 0.932767 0.366623 0 0.932767 0.86726 0 0.932767 0.86726 0 0.918501 0.366623 0 0.918501 0.366623 0 0.918501 0.867579 0 0.918501 0.867579 0 0.932767 0.888158 0 0.932767 0.888158 0 0.91848 0.888125 0 0.91848 0.888125 0 0.89452 0.366623 0 0.89452 0.867555 0 0.89452 0.888202 0 0.9959 0.1492 0 0.932823 0.144506 0 0.932823 0.144506 0 0.918509 0.144506 0 0.918509 0.144506 0 0.89452 0.144394 0 0.823578 0.378596 0 0.823958 0.182862 0 0.823612 0.888981 0 0.918501 0.12193 0 0.918501 0.12193 0 0.995872 0.961015 0 0.932823 0.121866 0 0.932823 0.121866 0 0.995887 0.122118 0 0.89452 0.12191 0 0.743924 0.378616 0 0.743924 0.378616 0 0.743924 0.378616 0 -2.00261 0.028779 0 0.691362 0.406606 0 0.691362 0.406606 0 0.691362 0.406606 0 -2.00261 0.993561 0 0.694794 0.905976 0 -2.00263 1.14646 0 0.856439 1.02579 0 0.744112 0.889379 0 0.744112 0.889379 0 0.823612 0.960359 0 0.823612 0.960359 0 0.89452 0.960559 0 0.89452 0.960559 0 0.932599 0.968796 0 0.932599 0.968796 0 0.932599 0.968796 0 -2.00262 1.36819 0 0.995821 0.984961 0 0.89452 0.998844 0 0.89452 0.998844 0 -2.00267 1.22739 0 0.89452 0.998844 0 0.932544 0.984447 0 0.995872 0.973142 0 0.995872 0.973142 0 0.892555 0.104708 0 0.892555 0.104708 0 0.892555 0.104708 0 0.892555 0.104708 0 0.642224 0.076415 0 0.894292 0.031647 0 0.894292 0.031647 0 0.75744 0.208049 0 0.75744 0.208049 0 0.75744 0.208049 0 0.641336 0.126459 0 0.641336 0.126459 0 0.641336 0.126459 0 0.641336 0.126459 0 0.73457 0.313197 0 0.73457 0.313197 0 0.73457 0.313197 0 0.642224 0.345109 0 0.642224 0.345109 0 0.642224 0.345109 0 0.918465 0.102098 0 0.918465 0.102098 0 0.918465 0.102098 0 0.932855 0.10209 0 0.932855 0.10209 0 0.629312 0.035763 0 0.632134 0.076415 0 0.932861 0.031622 0 0.932861 0.031622 0 0.617389 0.008512 0 0.995863 0.031813 0 0.995888 0.102076 0 -2.50116 1.22737 0 0.499531 0.035763 0 0.499531 0.076415 0 0.499325 0.008553 0 -2.50116 0.028779 0 0.499545 0.406564 0 0.499525 0.127261 0 -2.50113 1.14611 0 -2.50116 0.993561 0 -2.50165 1.36819 0 0.499531 0.345109 0 0.006809 0.093244 0 0.006663 0.031608 0 0.380955 0.008513 0 0.068628 0.031622 0 0.068628 0.031622 0 0.367732 0.076415 0 0.36975 0.035763 0 0.068634 0.09366 0 0.068634 0.09366 0 0.104537 0.093659 0 0.104537 0.093659 0 0.080592 0.093669 0 0.080592 0.093669 0 0.080592 0.093669 0 0.080514 0.031598 0 0.080514 0.031598 0 0.356839 0.076415 0 0.247848 0.20648 0 0.247848 0.20648 0 0.356878 0.127639 0 0.356878 0.127639 0 0.276773 0.312933 0 0.276773 0.312933 0 0.276773 0.312933 0 0.356839 0.345109 0 0.356839 0.345109 0 0.356839 0.345109 0 0.251813 0.375296 0 0.251813 0.375296 0 0.251813 0.375296 0 0.307697 0.406606 0 0.307697 0.406606 0 -3.00165 0.028779 0 0.307697 0.406606 0 0.175446 0.968873 0 0.175446 0.968873 0 0.254946 0.889379 0 0.254946 0.889379 0 0.12592 0.99952 0 -3.00158 1.14639 0 0.304263 0.905976 0 -3.00165 0.993561 0 0.104537 0.969073 0 0.104537 0.969073 0 0.07777 0.961699 0 0.08057 0.970254 0 -3.00165 1.22818 0 0.08057 0.970254 0 0.08057 0.970254 0 0.00663 0.967964 0 0.00663 0.967964 0 0.072683 0.962133 0 0.072683 0.962133 0 0.072683 0.962133 0 0.02259 0.966554 0 -3.00166 1.36752 0 0.104537 0.12191 0 0.006779 0.120501 0 0.068666 0.121866 0 0.068666 0.121866 0 0.080556 0.12193 0 0.080556 0.12193 0 0.006647 0.955946 0 0.175446 0.888981 0 0.175755 0.175102 0 0.175479 0.374169 0 0.104537 0.144394 0 0.080548 0.144506 0 0.080548 0.144506 0 0.068665 0.144506 0 0.068665 0.144506 0 0.006758 0.14674 0 0.104537 0.888202 0 0.104537 0.867555 0 0.104537 0.374168 0 0.080577 0.888125 0 0.080577 0.888125 0 0.068722 0.888158 0 0.068722 0.888158 0 0.080556 0.374168 0 0.080556 0.374168 0 0.080556 0.867579 0 0.080556 0.867579 0 0.068722 0.86726 0 0.068722 0.86726 0 0.068722 0.374168 0 0.068722 0.374168 0 0.175479 0.195771 0 0.006779 0.887306 0 0.104537 0.193317 0 0.006779 0.864699 0 0.006779 0.374177 0 0.104537 0.192785 0 0.080571 0.193362 0 0.080571 0.193362 0 0.08057 0.192598 0 0.08057 0.192598 0 0.068722 0.193418 0 0.068722 0.193418 0 0.068721 0.192575 0 0.068721 0.192575 0 0.006801 0.176736 0 0.006774 0.191553 0</float_array>
          <technique_common>
            <accessor source="#Object01-mesh-map-channel1-array" count="222" stride="3">
              <param name="S" type="float"/>
              <param name="T" type="float"/>
              <param name="P" type="float"/>
            </accessor>
          </technique_common>
        </source>
        <vertices id="Object01-mesh-vertices">
          <input semantic="POSITION" source="#Object01-mesh-positions"/>
        </vertices>
        <triangles material="Standardmaterial2" count="194">
          <input semantic="VERTEX" source="#Object01-mesh-vertices" offset="0"/>
          <input semantic="NORMAL" source="#Object01-mesh-normals" offset="1"/>
          <input semantic="TEXCOORD" source="#Object01-mesh-map-channel1" offset="2" set="1"/>
          <p>175 0 175 183 1 183 185 2 185 206 3 206 185 2 185 183 1 183 185 2 185 206 3 206 208 4 208 208 4 208 206 3 206 211 5 211 184 6 184 211 5 211 206 3 206 211 5 211 184 6 184 193 7 193 193 7 193 184 6 184 192 8 192 182 9 182 192 8 192 184 6 184 191 10 191 192 8 192 182 9 182 201 11 201 191 10 191 195 12 195 191 10 191 201 11 201 192 8 192 199 13 199 192 8 192 201 11 201 192 8 192 199 13 199 193 7 193 215 14 215 193 7 193 199 13 199 193 7 193 215 14 215 211 5 211 211 5 211 215 14 215 208 4 208 213 15 213 208 4 208 215 14 215 187 16 187 208 4 208 213 15 213 208 4 208 187 16 187 185 2 185 179 17 179 185 2 185 187 16 187 185 2 185 179 17 179 175 0 175 131 18 131 175 0 175 179 17 179 129 19 129 175 0 175 131 18 131 175 0 175 129 19 129 183 1 183 137 20 137 183 1 183 129 19 129 183 1 183 137 20 137 206 3 206 142 21 142 206 3 206 137 20 137 148 22 148 206 3 206 142 21 142 206 3 206 148 22 148 184 6 184 184 6 184 148 22 148 182 9 182 156 23 156 182 9 182 148 22 148 154 24 154 182 9 182 156 23 156 182 9 182 154 24 154 191 10 191 162 25 162 191 10 191 154 24 154 191 10 191 162 25 162 195 12 195 167 26 167 195 12 195 162 25 162 146 27 146 149 28 149 155 29 155 159 30 159 155 29 155 149 28 149 155 29 155 159 30 159 153 31 153 157 32 157 153 31 153 159 30 159 153 31 153 157 32 157 161 33 161 164 34 164 161 33 161 157 32 157 130 35 130 133 36 133 128 37 128 138 38 138 128 37 128 133 36 133 128 37 128 138 38 138 136 39 136 136 39 136 138 38 138 140 40 140 143 41 143 140 40 140 138 38 138 125 42 125 121 43 121 109 44 109 111 45 111 109 44 109 121 43 121 105 46 105 109 44 109 111 45 111 109 44 109 105 46 105 101 47 101 36 48 36 38 49 38 46 50 46 38 49 38 36 48 36 15 51 15 13 52 13 15 51 15 36 48 36 10 53 10 15 51 15 13 52 13 15 51 15 10 53 10 37 54 37 28 55 28 37 54 37 10 53 10 29 56 29 37 54 37 28 55 28 37 54 37 29 56 29 39 57 39 30 58 30 39 57 39 29 56 29 60 59 60 30 58 30 62 60 62 30 58 30 60 59 60 39 57 39 58 61 58 39 57 39 60 59 60 47 62 47 39 57 39 58 61 58 39 57 39 47 62 47 37 54 37 37 54 37 47 62 47 15 51 15 90 63 90 15 51 15 47 62 47 83 64 83 15 51 15 90 63 90 15 51 15 83 64 83 38 49 38 76 65 76 38 49 38 83 64 83 38 49 38 76 65 76 46 50 46 97 66 97 46 50 46 76 65 76 41 67 41 46 50 46 97 66 97 46 50 46 41 67 41 36 48 36 34 68 34 36 48 36 41 67 41 36 48 36 34 68 34 13 52 13 8 69 8 13 52 13 34 68 34 6 70 6 13 52 13 8 69 8 13 52 13 6 70 6 10 53 10 10 53 10 6 70 6 28 55 28 20 71 20 28 55 28 6 70 6 28 55 28 20 71 20 29 56 29 22 72 22 29 56 29 20 71 20 29 56 29 22 72 22 30 58 30 26 73 26 30 58 30 22 72 22 30 58 30 26 73 26 62 60 62 69 74 69 62 60 62 26 73 26 98 75 98 77 76 77 82 77 82 78 78 78 87 79 87 82 77 82 51 80 51 113 81 113 93 82 93 118 83 118 93 82 93 113 81 113 114 84 114 93 82 93 118 83 118 93 82 93 114 84 114 86 85 86 110 86 110 86 85 86 114 84 114 102 87 102 86 85 86 110 86 110 86 85 86 102 87 102 80 88 80 145 89 145 113 81 113 152 90 152 113 81 113 145 89 145 118 83 118 118 83 118 145 89 145 114 84 114 139 91 139 114 84 114 145 89 145 114 84 114 139 91 139 110 86 110 110 86 110 139 91 139 124 92 124 135 93 135 124 92 124 139 91 139 173 94 173 168 95 168 163 96 163 170 97 170 163 96 163 168 95 168 73 98 73 66 99 66 68 100 68 75 101 75 68 100 68 66 99 66 79 102 79 84 103 84 88 104 88 89 105 89 92 106 92 95 107 95 92 106 92 89 105 89 85 108 85 94 109 94 48 110 48 52 111 52 48 110 48 94 109 94 91 112 91 57 113 57 63 114 63 72 115 72 63 114 63 57 113 57 61 116 61 55 117 55 61 116 61 57 113 57 61 116 61 55 117 55 59 118 59 53 119 53 59 118 59 55 117 55 59 118 59 53 119 53 49 120 49 27 121 27 65 122 65 70 123 70 65 122 65 27 121 27 25 124 25 23 125 23 25 124 25 27 121 27 25 124 25 23 125 23 19 126 19 21 127 21 19 126 19 23 125 23 19 126 19 21 127 21 17 128 17 7 129 7 17 128 17 21 127 21 17 128 17 7 129 7 3 130 3 9 131 9 3 130 3 7 129 7 3 130 3 9 131 9 5 132 5 35 133 35 5 132 5 9 131 9 5 132 5 35 133 35 33 134 33 40 135 40 33 134 33 35 133 35 33 134 33 40 135 40 43 136 43 96 137 96 43 136 43 40 135 40 43 136 43 96 137 96 99 138 99 81 139 81 99 138 99 96 137 96 99 138 99 81 139 81 103 140 103 107 141 107 104 142 104 106 143 106 104 142 104 107 141 107 100 144 100 45 145 45 100 144 100 107 141 107 100 144 100 45 145 45 44 146 44 31 147 31 44 146 44 45 145 45 44 146 44 31 147 31 32 148 32 1 149 1 32 148 32 31 147 31 32 148 32 1 149 1 4 150 4 0 151 0 4 150 4 1 149 1 4 150 4 0 151 0 2 152 2 11 153 11 2 152 2 0 151 0 2 152 2 11 153 11 16 154 16 12 155 12 16 154 16 11 153 11 16 154 16 12 155 12 18 156 18 14 157 14 18 156 18 12 155 12 18 156 18 14 157 14 24 158 24 42 159 42 24 158 24 14 157 14 24 158 24 42 159 42 64 160 64 74 161 74 64 160 64 42 159 42 166 162 166 171 163 171 194 164 194 196 165 196 194 164 194 171 163 171 194 164 194 196 165 196 200 166 200 202 167 202 200 166 200 196 165 196 200 166 200 202 167 202 198 168 198 204 169 204 198 168 198 202 167 202 198 168 198 204 169 204 214 170 214 218 171 218 214 170 214 204 169 204 214 170 214 218 171 218 212 172 212 216 173 216 212 172 212 218 171 218 212 172 212 216 173 216 186 174 186 188 175 188 186 174 186 216 173 216 186 174 186 188 175 188 180 176 180 178 177 178 180 176 180 188 175 188 180 176 180 178 177 178 132 178 132 127 179 127 132 178 132 178 177 178 132 178 132 127 179 127 134 180 134 123 181 123 134 180 134 127 179 127 120 182 120 122 183 122 119 184 119 126 185 126 119 184 119 122 183 122 119 184 119 126 185 126 176 186 176 177 187 177 176 186 176 126 185 126 176 186 176 177 187 177 190 188 190 189 189 189 190 188 190 177 187 177 190 188 190 189 189 189 220 190 220 217 191 217 220 190 220 189 189 189 220 190 220 217 191 217 221 192 221 219 193 219 221 192 221 217 191 217 221 192 221 219 193 219 210 194 210 205 195 205 210 194 210 219 193 219 210 194 210 205 195 205 209 196 209 203 197 203 209 196 209 205 195 205 209 196 209 203 197 203 207 198 207 197 199 197 207 198 207 203 197 203 207 198 207 197 199 197 181 200 181 172 201 172 181 200 181 197 199 197 181 200 181 172 201 172 169 202 169 144 203 144 147 204 147 141 205 141 147 204 147 144 203 144 150 206 150</p>
        </triangles>
      </mesh>
    </geometry>
    <geometry id="Object02-mesh" name="Object02">
      <mesh>
        <source id="Object02-mesh-positions">
          <float_array id="Object02-mesh-positions-array" count="666">-80.3611 -103.289 -3.24867 -93.6717 -100.645 -3.28105 -77.9604 -95.7021 6.05835 -77.9604 -95.7021 6.05835 -89.7024 -93.3319 6.02772 -89.7024 -93.3319 6.02772 -78.0597 -92.6982 6.01786 -78.0597 -92.6982 6.01786 -87.8665 -91.0588 6.01786 -87.8665 -91.0588 6.01786 -77.9878 -86.0679 9.20684 -46.7495 -85.2346 -3.29076 97.2552 -85.124 -3.28262 -87.882 -84.5536 9.20684 109.063 -80.4866 -3.27257 -81.9435 -78.4739 12.4771 -44.8262 -77.9046 6.01786 -44.8262 -77.9046 6.01786 93.0406 -77.7412 6.02599 93.0406 -77.7412 6.02599 -45.3442 -75.1349 6.01786 -45.3442 -75.1349 6.01786 92.5162 -75.1349 6.01786 92.5162 -75.1349 6.01786 103.755 -73.6393 6.03593 103.755 -73.6393 6.03593 102.05 -71.377 6.01786 102.05 -71.377 6.01786 -45.3442 -69.7803 9.20684 92.4946 -69.7803 9.20684 102.069 -66.2713 9.20684 -126.289 -65.1647 -3.24912 -118.133 -64.5654 6.05867 -118.133 -64.5654 6.05867 -114.867 -63.8318 6.01786 -114.867 -63.8318 6.01786 -109.169 -61.6968 9.20684 -40.5423 -59.6958 12.4771 -101.18 -57.8846 12.4771 89.5086 -57.7708 12.4771 -114.822 -56.4838 6.01786 -114.822 -56.4838 6.01786 126.804 -56.4452 -3.28859 -117.982 -55.5994 6.04329 -117.982 -55.5994 6.04329 -126.086 -55.1148 -3.26535 -109.137 -54.5406 9.20684 -40.3594 -51.968 12.4771 -40.3594 -51.968 12.4771 -40.3594 -51.968 12.4771 -40.3594 -51.968 7.86629 -40.3594 -51.968 7.86629 -40.3594 -51.968 7.86629 -40.3594 -51.968 7.86629 89.8402 -51.968 7.86629 89.8402 -51.968 7.86629 111.32 -51.968 8.12502 111.32 -51.968 8.12502 89.8402 -51.968 12.4771 89.8402 -51.968 12.4771 106.564 -51.968 12.4771 106.564 -51.968 12.4771 114.293 -51.968 9.20684 114.293 -51.968 9.20684 121.244 -51.968 6.0166 121.244 -51.968 6.0166 121.244 -51.968 6.0166 117.408 -51.968 -4.05205 117.408 -51.968 -4.05205 117.408 -51.968 6.01785 117.408 -51.968 6.01785 117.408 -51.968 6.01785 117.408 -51.968 6.01785 117.408 -51.968 6.01785 126.915 -51.968 -3.28404 126.915 -51.968 -3.28404 -95.9454 -40.1636 9.20684 -95.9454 -40.1636 9.20684 -95.9454 -40.1636 9.20684 -95.9454 -40.1636 9.20684 -94.5675 -39.5457 5.90749 -94.5675 -39.5457 5.90749 -94.5675 -39.5457 5.90749 -84.9342 -39.5456 12.4771 -84.9342 -39.5456 12.4771 -84.9342 -39.5456 12.4771 -90.6051 -39.5456 8.20889 -90.6051 -39.5456 8.20889 -90.6051 -39.5456 8.20889 -90.6051 -39.5456 8.20889 -58.0176 -39.5456 12.4771 -58.0176 -39.5456 12.4771 -58.0176 -39.5456 12.4771 -58.0176 -39.5456 7.86629 -58.0176 -39.5456 7.86629 -58.0176 -39.5456 7.86629 -98.9539 -39.2993 6.01786 -98.9539 -39.2993 6.01786 -98.9539 -39.2993 6.01786 -100.879 -36.7882 6.01786 -100.879 -36.7882 6.01786 -94.5691 -36.7608 5.90629 -94.5691 -36.7608 5.90629 -94.5691 -36.7608 5.90629 -94.5691 -36.7608 5.90629 -95.7759 -34.0624 -3.29077 -95.7759 -34.0624 -3.29077 -104.586 -33.9822 -3.29077 117.408 -0.000022 5.75191 -94.569 0 5.90629 -94.569 0 5.90629 -95.776 0 -3.29077 -40.3594 0 7.86629 -40.3594 0 7.86629 -90.6051 0 8.20889 111.101 0 8.12502 89.8402 0 7.86629 117.408 0 -4.318 -58.0176 0 7.86629 -104.586 33.9821 -3.29076 -95.7759 34.0623 -3.29077 -95.7759 34.0623 -3.29077 -94.5692 36.7607 5.90629 -94.5692 36.7607 5.90629 -94.5692 36.7607 5.90629 -94.5692 36.7607 5.90629 -100.879 36.7881 6.01786 -100.879 36.7881 6.01786 -95.9454 39.5455 9.20684 -95.9454 39.5455 9.20684 -98.9539 39.5455 6.01785 -98.9539 39.5455 6.01785 -98.9539 39.5455 6.01785 -94.5675 39.5455 5.90749 -94.5675 39.5455 5.90749 -94.5675 39.5455 5.90749 -84.9342 39.5455 12.4771 -84.9342 39.5455 12.4771 -90.6051 39.5455 8.20889 -90.6051 39.5455 8.20889 -58.0176 39.5455 12.4771 -58.0176 39.5455 12.4771 -58.0176 39.5455 12.4771 -58.0176 39.5455 7.86629 -58.0176 39.5455 7.86629 -58.0176 39.5455 7.86629 -40.3594 52.1648 12.4771 -40.3594 52.1648 12.4771 -40.3594 52.1648 12.4771 -40.3594 52.1648 7.86629 -40.3594 52.1648 7.86629 -40.3594 52.1648 7.86629 -40.3594 52.1648 7.86629 106.564 52.1649 12.4771 106.564 52.1649 12.4771 89.8402 52.1649 12.4771 89.8402 52.1649 12.4771 111.32 52.1649 8.12502 111.32 52.1649 8.12502 89.8402 52.1649 7.86629 89.8402 52.1649 7.86629 114.293 52.1649 9.20684 114.293 52.1649 9.20684 117.408 52.1649 6.01785 117.408 52.1649 6.01785 117.408 52.1649 6.01785 117.408 52.1649 6.01785 117.408 52.1649 6.01785 126.915 52.1649 -3.28404 126.915 52.1649 -3.28404 121.244 52.1649 6.0166 121.244 52.1649 6.0166 121.244 52.1649 6.0166 117.408 52.1649 -4.05205 117.408 52.1649 -4.05205 -109.137 54.5405 9.20684 -126.086 55.1147 -3.26535 -117.982 55.5993 6.04329 -117.982 55.5993 6.04329 -114.822 56.4837 6.01786 -114.822 56.4837 6.01786 126.804 56.5761 -3.28859 89.5086 57.7708 12.4771 -101.18 57.8845 12.4771 -40.5424 59.6957 12.4771 -109.169 61.6967 9.20684 -114.867 63.8317 6.01786 -114.867 63.8317 6.01786 -118.133 64.5652 6.05867 -118.133 64.5652 6.05867 -126.289 65.1646 -3.24912 102.069 65.3692 9.20684 92.4946 69.0711 9.20684 -45.3442 69.4073 9.20684 102.05 71.004 6.01786 102.05 71.004 6.01786 103.755 73.2663 6.03593 103.755 73.2663 6.03593 -45.3442 74.7619 6.01786 -45.3442 74.7619 6.01786 92.5162 74.7619 6.01786 92.5162 74.7619 6.01786 93.0405 77.3682 6.02599 93.0405 77.3682 6.02599 -44.8263 77.5316 6.01786 -44.8263 77.5316 6.01786 -81.9435 78.1008 12.4771 109.063 80.1136 -3.27257 -87.8821 84.1806 9.20684 97.2552 84.751 -3.28262 -46.7496 84.8616 -3.29076 -77.9878 85.6949 9.20684 -87.8666 90.6858 6.01786 -87.8666 90.6858 6.01786 -78.0598 92.3251 6.01786 -78.0598 92.3251 6.01786 -89.7024 92.9589 6.02772 -89.7024 92.9589 6.02772 -77.9604 95.329 6.05835 -77.9604 95.329 6.05835 -93.6717 100.272 -3.28105 -80.3611 102.916 -3.24867</float_array>
          <technique_common>
            <accessor source="#Object02-mesh-positions-array" count="222" stride="3">
              <param name="X" type="float"/>
              <param name="Y" type="float"/>
              <param name="Z" type="float"/>
            </accessor>
          </technique_common>
        </source>
        <source id="Object02-mesh-normals">
          <float_array id="Object02-mesh-normals-array" count="45">0 0 1 0 0 1 -0.006022 0 0.999982 -0.006069 0 0.999982 0.16142 -0.002307 0.986883 0.172498 0.000001 0.98501 0.822514 0.000002 0.568745 0.813697 -0.002963 0.581281 1 0.000000 0 1 0.000000 0 1 0.000000 0 0.813694 0.002974 0.581286 0.161425 0.002315 0.986882 -0.006022 0 0.999982 0 0 1</float_array>
          <technique_common>
            <accessor source="#Object02-mesh-normals-array" count="15" stride="3">
              <param name="X" type="float"/>
              <param name="Y" type="float"/>
              <param name="Z" type="float"/>
            </accessor>
          </technique_common>
        </source>
        <source id="Object02-mesh-map-channel1">
          <float_array id="Object02-mesh-map-channel1-array" count="666">0.99589 0.195658 0 0.995874 0.172174 0 0.932767 0.193368 0 0.932767 0.193368 0 0.932766 0.175505 0 0.932766 0.175505 0 0.918487 0.193391 0 0.918487 0.193391 0 0.918486 0.175449 0 0.918486 0.175449 0 0.89452 0.193577 0 0.995887 0.366627 0 0.995887 0.867524 0 0.89452 0.175404 0 0.995887 0.889605 0 0.826198 0.196563 0 0.932767 0.366623 0 0.932767 0.366623 0 0.932767 0.86726 0 0.932767 0.86726 0 0.918501 0.366623 0 0.918501 0.366623 0 0.918501 0.867579 0 0.918501 0.867579 0 0.932767 0.888158 0 0.932767 0.888158 0 0.91848 0.888125 0 0.91848 0.888125 0 0.89452 0.366623 0 0.89452 0.867555 0 0.89452 0.888202 0 0.9959 0.1492 0 0.932823 0.144506 0 0.932823 0.144506 0 0.918509 0.144506 0 0.918509 0.144506 0 0.89452 0.144394 0 0.823578 0.378596 0 0.823958 0.182862 0 0.823612 0.888981 0 0.918501 0.12193 0 0.918501 0.12193 0 0.995872 0.961015 0 0.932823 0.121866 0 0.932823 0.121866 0 0.995887 0.122118 0 0.89452 0.12191 0 0.743924 0.378616 0 0.743924 0.378616 0 0.743924 0.378616 0 -2.00261 0.028779 0 0.691362 0.406606 0 0.691362 0.406606 0 0.691362 0.406606 0 -2.00261 0.993561 0 0.694794 0.905976 0 -2.00263 1.14646 0 0.856439 1.02579 0 0.744112 0.889379 0 0.744112 0.889379 0 0.823612 0.960359 0 0.823612 0.960359 0 0.89452 0.960559 0 0.89452 0.960559 0 0.932599 0.968796 0 0.932599 0.968796 0 0.932599 0.968796 0 -2.00262 1.36819 0 0.995821 0.984961 0 0.89452 0.998844 0 0.89452 0.998844 0 -2.00267 1.22739 0 0.89452 0.998844 0 0.932544 0.984447 0 0.995872 0.973142 0 0.995872 0.973142 0 0.892555 0.104708 0 0.892555 0.104708 0 0.892555 0.104708 0 0.892555 0.104708 0 0.642224 0.076415 0 0.894292 0.031647 0 0.894292 0.031647 0 0.75744 0.208049 0 0.75744 0.208049 0 0.75744 0.208049 0 0.641336 0.126459 0 0.641336 0.126459 0 0.641336 0.126459 0 0.641336 0.126459 0 0.73457 0.313197 0 0.73457 0.313197 0 0.73457 0.313197 0 0.642224 0.345109 0 0.642224 0.345109 0 0.642224 0.345109 0 0.918465 0.102098 0 0.918465 0.102098 0 0.918465 0.102098 0 0.932855 0.10209 0 0.932855 0.10209 0 0.629312 0.035763 0 0.632134 0.076415 0 0.932861 0.031622 0 0.932861 0.031622 0 0.617389 0.008512 0 0.995863 0.031813 0 0.995888 0.102076 0 -2.50116 1.22737 0 0.499531 0.035763 0 0.499531 0.076415 0 0.499325 0.008553 0 -2.50116 0.028779 0 0.499545 0.406564 0 0.499525 0.127261 0 -2.50113 1.14611 0 -2.50116 0.993561 0 -2.50165 1.36819 0 0.499531 0.345109 0 0.006809 0.093244 0 0.006663 0.031608 0 0.380955 0.008513 0 0.068628 0.031622 0 0.068628 0.031622 0 0.367732 0.076415 0 0.36975 0.035763 0 0.068634 0.09366 0 0.068634 0.09366 0 0.104537 0.093659 0 0.104537 0.093659 0 0.080592 0.093669 0 0.080592 0.093669 0 0.080592 0.093669 0 0.080514 0.031598 0 0.080514 0.031598 0 0.356839 0.076415 0 0.247848 0.20648 0 0.247848 0.20648 0 0.356878 0.127639 0 0.356878 0.127639 0 0.276773 0.312933 0 0.276773 0.312933 0 0.276773 0.312933 0 0.356839 0.345109 0 0.356839 0.345109 0 0.356839 0.345109 0 0.251813 0.375296 0 0.251813 0.375296 0 0.251813 0.375296 0 0.307697 0.406606 0 0.307697 0.406606 0 -3.00165 0.028779 0 0.307697 0.406606 0 0.175446 0.968873 0 0.175446 0.968873 0 0.254946 0.889379 0 0.254946 0.889379 0 0.12592 0.99952 0 -3.00158 1.14639 0 0.304263 0.905976 0 -3.00165 0.993561 0 0.104537 0.969073 0 0.104537 0.969073 0 0.07777 0.961699 0 0.08057 0.970254 0 -3.00165 1.22818 0 0.08057 0.970254 0 0.08057 0.970254 0 0.00663 0.967964 0 0.00663 0.967964 0 0.072683 0.962133 0 0.072683 0.962133 0 0.072683 0.962133 0 0.02259 0.966554 0 -3.00166 1.36752 0 0.104537 0.12191 0 0.006779 0.120501 0 0.068666 0.121866 0 0.068666 0.121866 0 0.080556 0.12193 0 0.080556 0.12193 0 0.006647 0.955946 0 0.175446 0.888981 0 0.175755 0.175102 0 0.175479 0.374169 0 0.104537 0.144394 0 0.080548 0.144506 0 0.080548 0.144506 0 0.068665 0.144506 0 0.068665 0.144506 0 0.006758 0.14674 0 0.104537 0.888202 0 0.104537 0.867555 0 0.104537 0.374168 0 0.080577 0.888125 0 0.080577 0.888125 0 0.068722 0.888158 0 0.068722 0.888158 0 0.080556 0.374168 0 0.080556 0.374168 0 0.080556 0.867579 0 0.080556 0.867579 0 0.068722 0.86726 0 0.068722 0.86726 0 0.068722 0.374168 0 0.068722 0.374168 0 0.175479 0.195771 0 0.006779 0.887306 0 0.104537 0.193317 0 0.006779 0.864699 0 0.006779 0.374177 0 0.104537 0.192785 0 0.080571 0.193362 0 0.080571 0.193362 0 0.08057 0.192598 0 0.08057 0.192598 0 0.068722 0.193418 0 0.068722 0.193418 0 0.068721 0.192575 0 0.068721 0.192575 0 0.006801 0.176736 0 0.006774 0.191553 0</float_array>
          <technique_common>
            <accessor source="#Object02-mesh-map-channel1-array" count="222" stride="3">
              <param name="S" type="float"/>
              <param name="T" type="float"/>
              <param name="P" type="float"/>
            </accessor>
          </technique_common>
        </source>
        <vertices id="Object02-mesh-vertices">
          <input semantic="POSITION" source="#Object02-mesh-positions"/>
        </vertices>
        <triangles material="Standardmaterial1" count="16">
          <input semantic="VERTEX" source="#Object02-mesh-vertices" offset="0"/>
          <input semantic="NORMAL" source="#Object02-mesh-normals" offset="1"/>
          <input semantic="TEXCOORD" source="#Object02-mesh-map-channel1" offset="2" set="1"/>
          <p>151 0 151 112 1 112 160 2 160 116 3 116 160 2 160 112 1 112 160 2 160 116 3 116 158 4 158 115 5 115 158 4 158 116 3 116 108 6 108 158 4 158 115 5 115 158 4 158 108 6 108 165 7 165 117 8 117 165 7 165 108 6 108 165 7 165 117 8 117 174 9 174 108 6 108 67 10 67 117 8 117 67 10 67 108 6 108 71 11 71 71 11 71 108 6 108 56 12 56 115 5 115 56 12 56 108 6 108 116 3 116 56 12 56 115 5 115 56 12 56 116 3 116 54 13 54 112 1 112 54 13 54 116 3 116 54 13 54 112 1 112 50 14 50</p>
        </triangles>
      </mesh>
    </geometry>
  </library_geometries>
  <library_visual_scenes>
    <visual_scene id="Dashpad.max" name="Dashpad_max">
      <node id="Object01-node" name="Object01" type="NODE">
        <translate>0 0 0</translate>
        <instance_geometry url="#Object01-mesh">
          <bind_material>
            <technique_common>
              <instance_material symbol="Standardmaterial2" target="#Standardmaterial2">
                <bind_vertex_input semantic="CHANNEL1" input_semantic="TEXCOORD" input_set="1"/>
              </instance_material>
            </technique_common>
          </bind_material>
        </instance_geometry>
      </node>
      <node id="Object02-node" name="Object02" type="NODE">
        <translate>0 0 0</translate>
        <instance_geometry url="#Object02-mesh">
          <bind_material>
            <technique_common>
              <instance_material symbol="Standardmaterial1" target="#Standardmaterial1">
                <bind_vertex_input semantic="CHANNEL1" input_semantic="TEXCOORD" input_set="1"/>
              </instance_material>
            </technique_common>
          </bind_material>
        </instance_geometry>
      </node>
      <extra>
        <technique profile="FCOLLADA">
          <start_time>0</start_time>
          <end_time>3.33333</end_time>
        </technique>
      </extra>
      <extra>
        <technique profile="MAX3D">
          <frame_rate>30</frame_rate>
        </technique>
      </extra>
    </visual_scene>
  </library_visual_scenes>
  <scene>
    <instance_visual_scene url="#Dashpad.max"/>
  </scene>
</COLLADA>
