<?xml version="1.0" encoding="utf-8"?>
<COLLADA xmlns="http://www.collada.org/2005/11/COLLADASchema" version="1.4.1">
  <asset>
    <contributor>
      <author>Shadowth117</author>
      <authoring_tool>3dsMax 11 - Feeling ColladaMax v3.05B.</authoring_tool>
      <comments>ColladaMax Export Options: ExportNormals=1;ExportEPolyAsTriangles=0;ExportXRefs=1;ExportSelected=0;ExportTangents=0;ExportAnimations=1;SampleAnim=0;ExportAnimClip=0;BakeMatrices=0;ExportRelativePaths=1;AnimStart=0;AnimEnd=3.33333;</comments>
      <source_data>file:///F:/Softwrap/YOYOGAMESGM70FINAL/Pre%20Nuke%20HD%20files/Public%20Documents/Documents/Spriter%27s%20resource/Models/Sonic%20The%20Hedgehog%20%282006%29/Objects/Spring/Spring.max</source_data>
    </contributor>
    <created>2010-10-16T22:40:04Z</created>
    <modified>2010-10-16T22:40:05Z</modified>
    <unit meter="0.0254" name="inch"/>
    <up_axis>Z_UP</up_axis>
  </asset>
  <library_images>
    <image id="cmn_spring01_dfsp_j_alpha.png" name="cmn_spring01_dfsp_j_alpha_png">
      <init_from>./cmn_spring01_dfsp_j_alpha.png</init_from>
    </image>
    <image id="cmn_spring01_dfsp_j.png" name="cmn_spring01_dfsp_j_png">
      <init_from>./cmn_spring01_dfsp_j.png</init_from>
    </image>
    <image id="cmn_spring02_dfsp_j_alpha.png" name="cmn_spring02_dfsp_j_alpha_png">
      <init_from>./cmn_spring02_dfsp_j_alpha.png</init_from>
    </image>
    <image id="cmn_spring02_dfsp_j.png" name="cmn_spring02_dfsp_j_png">
      <init_from>./cmn_spring02_dfsp_j.png</init_from>
    </image>
  </library_images>
  <library_materials>
    <material id="Standardmaterial" name="Standardmaterial">
      <instance_effect url="#Standardmaterial-fx"/>
    </material>
    <material id="Standardmaterial1" name="Standardmaterial">
      <instance_effect url="#Standardmaterial1-fx"/>
    </material>
  </library_materials>
  <library_effects>
    <effect id="Standardmaterial-fx" name="Standardmaterial">
      <profile_COMMON>
        <newparam sid="cmn_spring01_dfsp_j_alpha_png-surface">
          <surface type="2D">
            <init_from>cmn_spring01_dfsp_j_alpha.png</init_from>
            <format>A8R8G8B8</format>
          </surface>
        </newparam>
        <newparam sid="cmn_spring01_dfsp_j_alpha_png-sampler">
          <sampler2D>
            <source>cmn_spring01_dfsp_j_alpha_png-surface</source>
            <wrap_s>WRAP</wrap_s>
            <wrap_t>WRAP</wrap_t>
            <minfilter>NONE</minfilter>
            <magfilter>NONE</magfilter>
            <mipfilter>NONE</mipfilter>
          </sampler2D>
        </newparam>
        <newparam sid="cmn_spring01_dfsp_j_png-surface">
          <surface type="2D">
            <init_from>cmn_spring01_dfsp_j.png</init_from>
            <format>A8R8G8B8</format>
          </surface>
        </newparam>
        <newparam sid="cmn_spring01_dfsp_j_png-sampler">
          <sampler2D>
            <source>cmn_spring01_dfsp_j_png-surface</source>
            <wrap_s>WRAP</wrap_s>
            <wrap_t>WRAP</wrap_t>
            <minfilter>NONE</minfilter>
            <magfilter>NONE</magfilter>
            <mipfilter>NONE</mipfilter>
          </sampler2D>
        </newparam>
        <newparam sid="cmn_spring01_dfsp_j_alpha_png-surface">
          <surface type="2D">
            <init_from>cmn_spring01_dfsp_j_alpha.png</init_from>
            <format>A8R8G8B8</format>
          </surface>
        </newparam>
        <newparam sid="cmn_spring01_dfsp_j_alpha_png-sampler">
          <sampler2D>
            <source>cmn_spring01_dfsp_j_alpha_png-surface</source>
            <wrap_s>WRAP</wrap_s>
            <wrap_t>WRAP</wrap_t>
            <minfilter>NONE</minfilter>
            <magfilter>NONE</magfilter>
            <mipfilter>NONE</mipfilter>
          </sampler2D>
        </newparam>
        <technique sid="common">
          <blinn>
            <ambient>
              <texture texture="cmn_spring01_dfsp_j_alpha_png-sampler" texcoord="CHANNEL1">
                <extra>
                  <technique profile="MAYA">
                    <mirrorU>0</mirrorU>
                    <mirrorV>0</mirrorV>
                    <wrapU>1</wrapU>
                    <wrapV>1</wrapV>
                    <repeatU>1</repeatU>
                    <repeatV>1</repeatV>
                    <offsetU>0</offsetU>
                    <offsetV>0</offsetV>
                    <rotateUV>0</rotateUV>
                  </technique>
                  <technique profile="MAX3D">
                    <amount>1</amount>
                  </technique>
                </extra>
              </texture>
            </ambient>
            <diffuse>
              <texture texture="cmn_spring01_dfsp_j_png-sampler" texcoord="CHANNEL1">
                <extra>
                  <technique profile="MAYA">
                    <mirrorU>0</mirrorU>
                    <mirrorV>0</mirrorV>
                    <wrapU>1</wrapU>
                    <wrapV>1</wrapV>
                    <repeatU>1</repeatU>
                    <repeatV>1</repeatV>
                    <offsetU>0</offsetU>
                    <offsetV>0</offsetV>
                    <rotateUV>0</rotateUV>
                  </technique>
                  <technique profile="MAX3D">
                    <amount>1</amount>
                  </technique>
                </extra>
              </texture>
            </diffuse>
            <specular>
              <color>0.9 0.9 0.9 1</color>
            </specular>
            <shininess>
              <float>0.415939</float>
            </shininess>
            <reflective>
              <color>0 0 0 1</color>
            </reflective>
            <reflectivity>
              <float>1</float>
            </reflectivity>
            <transparent opaque="A_ONE">
              <color>1 1 1 1</color>
            </transparent>
            <transparency>
              <float>1</float>
            </transparency>
          </blinn>
          <extra>
            <technique profile="FCOLLADA">
              <spec_level>
                <texture texture="cmn_spring01_dfsp_j_alpha_png-sampler" texcoord="CHANNEL1">
                  <extra>
                    <technique profile="MAYA">
                      <mirrorU>0</mirrorU>
                      <mirrorV>0</mirrorV>
                      <wrapU>1</wrapU>
                      <wrapV>1</wrapV>
                      <repeatU>1</repeatU>
                      <repeatV>1</repeatV>
                      <offsetU>0</offsetU>
                      <offsetV>0</offsetV>
                      <rotateUV>0</rotateUV>
                    </technique>
                    <technique profile="MAX3D">
                      <amount>1</amount>
                    </technique>
                  </extra>
                </texture>
              </spec_level>
              <emission_level>
                <float>0</float>
              </emission_level>
            </technique>
          </extra>
        </technique>
      </profile_COMMON>
      <extra>
        <technique profile="MAX3D">
          <faceted>0</faceted>
          <double_sided>0</double_sided>
          <wireframe>0</wireframe>
          <face_map>0</face_map>
        </technique>
      </extra>
    </effect>
    <effect id="Standardmaterial1-fx" name="Standardmaterial">
      <profile_COMMON>
        <newparam sid="cmn_spring02_dfsp_j_alpha_png-surface">
          <surface type="2D">
            <init_from>cmn_spring02_dfsp_j_alpha.png</init_from>
            <format>A8R8G8B8</format>
          </surface>
        </newparam>
        <newparam sid="cmn_spring02_dfsp_j_alpha_png-sampler">
          <sampler2D>
            <source>cmn_spring02_dfsp_j_alpha_png-surface</source>
            <wrap_s>WRAP</wrap_s>
            <wrap_t>WRAP</wrap_t>
            <minfilter>NONE</minfilter>
            <magfilter>NONE</magfilter>
            <mipfilter>NONE</mipfilter>
          </sampler2D>
        </newparam>
        <newparam sid="cmn_spring02_dfsp_j_png-surface">
          <surface type="2D">
            <init_from>cmn_spring02_dfsp_j.png</init_from>
            <format>A8R8G8B8</format>
          </surface>
        </newparam>
        <newparam sid="cmn_spring02_dfsp_j_png-sampler">
          <sampler2D>
            <source>cmn_spring02_dfsp_j_png-surface</source>
            <wrap_s>WRAP</wrap_s>
            <wrap_t>WRAP</wrap_t>
            <minfilter>NONE</minfilter>
            <magfilter>NONE</magfilter>
            <mipfilter>NONE</mipfilter>
          </sampler2D>
        </newparam>
        <newparam sid="cmn_spring02_dfsp_j_alpha_png-surface">
          <surface type="2D">
            <init_from>cmn_spring02_dfsp_j_alpha.png</init_from>
            <format>A8R8G8B8</format>
          </surface>
        </newparam>
        <newparam sid="cmn_spring02_dfsp_j_alpha_png-sampler">
          <sampler2D>
            <source>cmn_spring02_dfsp_j_alpha_png-surface</source>
            <wrap_s>WRAP</wrap_s>
            <wrap_t>WRAP</wrap_t>
            <minfilter>NONE</minfilter>
            <magfilter>NONE</magfilter>
            <mipfilter>NONE</mipfilter>
          </sampler2D>
        </newparam>
        <technique sid="common">
          <blinn>
            <ambient>
              <texture texture="cmn_spring02_dfsp_j_alpha_png-sampler" texcoord="CHANNEL1">
                <extra>
                  <technique profile="MAYA">
                    <mirrorU>0</mirrorU>
                    <mirrorV>0</mirrorV>
                    <wrapU>1</wrapU>
                    <wrapV>1</wrapV>
                    <repeatU>1</repeatU>
                    <repeatV>1</repeatV>
                    <offsetU>0</offsetU>
                    <offsetV>0</offsetV>
                    <rotateUV>0</rotateUV>
                  </technique>
                  <technique profile="MAX3D">
                    <amount>1</amount>
                  </technique>
                </extra>
              </texture>
            </ambient>
            <diffuse>
              <texture texture="cmn_spring02_dfsp_j_png-sampler" texcoord="CHANNEL1">
                <extra>
                  <technique profile="MAYA">
                    <mirrorU>0</mirrorU>
                    <mirrorV>0</mirrorV>
                    <wrapU>1</wrapU>
                    <wrapV>1</wrapV>
                    <repeatU>1</repeatU>
                    <repeatV>1</repeatV>
                    <offsetU>0</offsetU>
                    <offsetV>0</offsetV>
                    <rotateUV>0</rotateUV>
                  </technique>
                  <technique profile="MAX3D">
                    <amount>1</amount>
                  </technique>
                </extra>
              </texture>
            </diffuse>
            <specular>
              <color>0.9 0.9 0.9 1</color>
            </specular>
            <shininess>
              <float>0.415939</float>
            </shininess>
            <reflective>
              <color>0 0 0 1</color>
            </reflective>
            <reflectivity>
              <float>1</float>
            </reflectivity>
            <transparent opaque="A_ONE">
              <color>1 1 1 1</color>
            </transparent>
            <transparency>
              <float>1</float>
            </transparency>
          </blinn>
          <extra>
            <technique profile="FCOLLADA">
              <spec_level>
                <texture texture="cmn_spring02_dfsp_j_alpha_png-sampler" texcoord="CHANNEL1">
                  <extra>
                    <technique profile="MAYA">
                      <mirrorU>0</mirrorU>
                      <mirrorV>0</mirrorV>
                      <wrapU>1</wrapU>
                      <wrapV>1</wrapV>
                      <repeatU>1</repeatU>
                      <repeatV>1</repeatV>
                      <offsetU>0</offsetU>
                      <offsetV>0</offsetV>
                      <rotateUV>0</rotateUV>
                    </technique>
                    <technique profile="MAX3D">
                      <amount>1</amount>
                    </technique>
                  </extra>
                </texture>
              </spec_level>
              <emission_level>
                <float>0</float>
              </emission_level>
            </technique>
          </extra>
        </technique>
      </profile_COMMON>
      <extra>
        <technique profile="MAX3D">
          <faceted>0</faceted>
          <double_sided>0</double_sided>
          <wireframe>0</wireframe>
          <face_map>0</face_map>
        </technique>
      </extra>
    </effect>
  </library_effects>
  <library_geometries>
    <geometry id="Object02-mesh" name="Object02">
      <mesh>
        <source id="Object02-mesh-positions">
          <float_array id="Object02-mesh-positions-array" count="378">58.4674 -75.7607 -0.000015 58.4674 -75.7607 -0.000015 58.4674 -71.1815 25.9697 58.4674 -71.1815 25.9697 58.4674 -71.1815 -25.9698 58.4674 -71.1815 -25.9698 77.681 -66.6694 -0.000014 77.681 -62.6385 -22.8604 77.681 -62.6385 22.8603 58.4674 -57.9963 48.8071 58.4674 -57.9963 48.8071 58.4673 -57.9963 -48.8072 58.4673 -57.9963 -48.8072 91.7314 -54.4839 -0.000012 91.7314 -51.1879 18.6927 91.7314 -51.1879 -18.6927 77.681 -51.032 42.9634 77.681 -51.032 -42.9634 91.7314 -41.6974 35.1307 91.7314 -41.6973 -35.1307 58.4674 -37.7954 65.7577 58.4674 -37.7954 65.7577 58.4674 -37.7954 -65.7577 58.4674 -37.7954 -65.7577 100.044 -36.1021 -0.00001 51.1705 -34.5036 -0.000006 100.044 -33.9146 12.4057 100.044 -33.9146 -12.4057 77.681 -33.2498 57.8844 77.681 -33.2498 -57.8844 51.1705 -32.4125 -11.859 51.1705 -32.4125 11.859 41.1759 -29.4789 -0.000007 41.1758 -27.6909 10.1405 41.1758 -27.6909 -10.1405 100.044 -27.6161 23.3151 100.044 -27.6161 -23.3151 91.7314 -27.157 47.3315 91.7314 -27.157 -47.3315 51.1705 -26.3915 22.2876 51.1705 -26.3915 -22.2876 41.1759 -22.5425 19.0578 41.1758 -22.5424 -19.0579 100.044 -17.9661 31.4124 100.044 -17.9661 -31.4124 51.1705 -17.1669 30.028 51.1705 -17.1669 -30.028 41.1759 -14.6546 25.6766 41.1758 -14.6546 -25.6766 58.4674 -13.0154 74.7769 58.4674 -13.0154 74.7769 58.4673 -13.0154 -74.7769 58.4673 -13.0154 -74.7769 77.681 -11.4367 65.8237 77.681 -11.4367 -65.8237 91.7314 -9.32072 53.8234 91.7314 -9.3207 -53.8234 100.044 -6.12875 35.7208 100.044 -6.12873 -35.7208 51.1705 -5.85117 34.1466 51.1705 -5.85116 -34.1466 41.1759 -4.97865 29.1983 41.1758 -4.97864 -29.1983 41.1759 5.31825 29.1983 41.1758 5.31826 -29.1983 51.1705 6.19077 34.1466 51.1705 6.19078 -34.1466 100.044 6.46834 35.7208 100.044 6.46835 -35.7208 91.7314 9.66031 53.8234 91.7314 9.66033 -53.8234 77.681 11.7763 65.8237 77.681 11.7763 -65.8237 58.4674 13.355 74.7769 58.4674 13.355 74.7769 58.4674 13.355 -74.7769 58.4674 13.355 -74.7769 41.1759 14.9942 25.6766 41.1758 14.9942 -25.6766 51.1705 17.5065 30.028 51.1705 17.5065 -30.028 100.044 18.3057 31.4124 100.044 18.3057 -31.4124 41.1759 22.8821 19.0578 41.1758 22.8821 -19.0578 51.1705 26.7312 22.2876 51.1705 26.7312 -22.2876 91.7314 27.4966 47.3315 91.7314 27.4967 -47.3315 100.044 27.9557 23.3151 100.044 27.9557 -23.3151 41.1759 28.0305 10.1405 41.1759 28.0305 -10.1405 41.1758 29.8186 -0.000001 51.1705 32.7521 11.859 51.1705 32.7521 -11.859 77.681 33.5894 57.8844 77.681 33.5894 -57.8844 100.044 34.2542 12.4057 100.044 34.2542 -12.4057 51.1705 34.8432 -0.000000 100.044 36.4417 -0.000004 58.4674 38.135 65.7577 58.4674 38.135 65.7577 58.4673 38.135 -65.7577 58.4673 38.135 -65.7577 91.7314 42.037 35.1307 91.7314 42.037 -35.1307 77.681 51.3716 42.9634 77.681 51.3716 -42.9634 91.7314 51.5275 18.6927 91.7314 51.5275 -18.6926 91.7314 54.8235 -0.000002 58.4674 58.3359 48.8071 58.4674 58.3359 48.8071 58.4674 58.3359 -48.8071 58.4674 58.3359 -48.8071 77.681 62.9781 22.8603 77.681 62.9781 -22.8603 77.681 67.0089 -0.000002 58.4674 71.521 25.9697 58.4674 71.521 25.9697 58.4674 71.5211 -25.9697 58.4674 71.5211 -25.9697 58.4674 76.1002 -0.000001 58.4674 76.1002 -0.000001</float_array>
          <technique_common>
            <accessor source="#Object02-mesh-positions-array" count="126" stride="3">
              <param name="X" type="float"/>
              <param name="Y" type="float"/>
              <param name="Z" type="float"/>
            </accessor>
          </technique_common>
        </source>
        <source id="Object02-mesh-normals">
          <float_array id="Object02-mesh-normals-array" count="378">0.427704 0.849406 -0.309158 0.427704 0.903919 0.000000 0.539737 0.841834 0.000000 0.427704 0.849406 0.309158 0.539737 0.791065 0.287924 0.427704 0.692442 0.581028 0.539737 0.644882 0.54112 0.427704 0.451959 0.782817 0.539737 0.420917 0.729049 0.427704 0.156964 0.890186 0.539737 0.146183 0.829044 0.427704 -0.156964 0.890186 0.539737 -0.146183 0.829044 0.427704 -0.451959 0.782817 0.539738 -0.420917 0.729049 0.427704 -0.692442 0.581028 0.539737 -0.644882 0.54112 0.427705 -0.849406 0.309158 0.539738 -0.791064 0.287924 0.427705 -0.903918 0 0.539738 -0.841833 0 0.427705 -0.849405 -0.309159 0.539738 -0.791064 -0.287924 0.427704 -0.692442 -0.581028 0.539737 -0.644882 -0.541121 0.427704 -0.451959 -0.782817 0.539737 -0.420917 -0.729049 0.427704 -0.156964 -0.890186 0.539737 -0.146183 -0.829044 0.539737 0.146183 -0.829044 0.427704 0.156964 -0.890186 0.539737 0.420917 -0.729049 0.427704 0.45196 -0.782817 0.427704 0.692442 -0.581027 0.539737 0.644882 -0.54112 0.539737 0.791065 -0.287924 0.790496 0.575531 -0.209476 0.790496 0.612467 0 0.790496 0.575531 0.209476 0.790496 0.469177 0.393686 0.790496 0.306233 0.530412 0.790496 0.106354 0.603162 0.790496 -0.106354 0.603162 0.790496 -0.306234 0.530412 0.790496 -0.469177 0.393686 0.790496 -0.575531 0.209476 0.790496 -0.612467 0 0.790496 -0.575531 -0.209476 0.790496 -0.469177 -0.393686 0.790496 -0.306233 -0.530412 0.790496 -0.106354 -0.603162 0.790496 0.106354 -0.603162 0.790496 0.306234 -0.530412 0.790496 0.469177 -0.393686 0.911164 0.387195 -0.140927 0.911164 0.412044 0 0.911164 0.387195 0.140927 0.911164 0.315644 0.264857 0.911164 0.206022 0.356841 0.911164 0.07155 0.405784 0.911164 -0.07155 0.405784 0.911164 -0.206022 0.356841 0.911164 -0.315644 0.264857 0.911164 -0.387195 0.140928 0.911164 -0.412044 -0.000000 0.911164 -0.387195 -0.140928 0.911164 -0.315644 -0.264857 0.911164 -0.206022 -0.356841 0.911164 -0.07155 -0.405784 0.911164 0.07155 -0.405784 0.911164 0.206022 -0.356841 0.911164 0.315644 -0.264857 -0.825428 -0.282253 -0.488877 -0.825428 0.098025 -0.555931 -0.825428 -0.098025 -0.555931 -0.825428 0.282254 -0.488877 -0.825428 -0.432437 -0.362858 -0.825428 0.432438 -0.362858 -0.825428 -0.530463 -0.193073 -0.825428 0.530463 -0.193073 -0.825428 -0.564507 -0.000000 -0.825428 0.564507 -0.000000 -0.825428 -0.530463 0.193073 -0.825428 0.530463 0.193073 -0.825428 -0.432437 0.362858 -0.825428 0.432438 0.362858 -0.825428 -0.282254 0.488878 -0.825428 0.282253 0.488877 -0.825428 -0.098025 0.555931 -0.825428 0.098025 0.555931 -0.826268 -0.097812 0.55472 -0.826268 0.097811 0.55472 -0.826268 0.281638 0.487812 -0.826268 0.431496 0.362067 -0.826268 0.529307 0.192652 -0.826268 0.563278 0 -0.826268 0.529307 -0.192652 -0.826268 0.431496 -0.362067 -0.826268 0.281639 -0.487812 -0.826268 0.097812 -0.55472 -0.826268 -0.097811 -0.55472 -0.826268 -0.281639 -0.487812 -0.826268 -0.431495 -0.362068 -0.826268 -0.529307 -0.192652 -0.826268 -0.563277 0 -0.826268 -0.529308 0.192652 -0.826268 -0.431495 0.362068 -0.826268 -0.281639 0.487812 -0.984717 -0.08708 0.150828 -0.984717 -0.030242 0.171515 -0.984717 0.030242 0.171515 -0.984717 0.08708 0.150828 -0.984717 0.133415 0.111949 -0.984717 0.163658 0.059566 -0.984717 0.174161 0 -0.984717 0.163658 -0.059566 -0.984717 0.133415 -0.111948 -0.984717 0.08708 -0.150828 -0.984717 0.030242 -0.171515 -0.984717 -0.030242 -0.171515 -0.984717 -0.08708 -0.150828 -0.984717 -0.133415 -0.111949 -0.984717 -0.163658 -0.059566 -0.984717 -0.174161 0 -0.984717 -0.163658 0.059566 -0.984717 -0.133415 0.111949</float_array>
          <technique_common>
            <accessor source="#Object02-mesh-normals-array" count="126" stride="3">
              <param name="X" type="float"/>
              <param name="Y" type="float"/>
              <param name="Z" type="float"/>
            </accessor>
          </technique_common>
        </source>
        <source id="Object02-mesh-map-channel1">
          <float_array id="Object02-mesh-map-channel1-array" count="489">0.017569 0.500371 0 0.279786 0.501659 0 0.046548 0.66679 0 0.293 0.576599 0 0.046548 0.33395 0 0.293 0.426719 0 0.101001 0.500371 0 0.124949 0.362846 0 0.124949 0.637895 0 0.12999 0.813138 0 0.331048 0.6425 0 0.12999 0.187603 0 0.331048 0.360819 0 0.174115 0.500459 0 0.193665 0.612728 0 0.193665 0.388189 0 0.193902 0.758832 0 0.193902 0.241908 0 0.249955 0.711456 0 0.249955 0.289461 0 0.257829 0.921761 0 0.38934 0.691413 0 0.25783 0.07898 0 0.389341 0.311905 0 0.04562 1.47593 0 0.259467 0.496352 0 0.387946 0.501659 0 0.072654 1.62925 0 0.273907 0.579279 0 0.072654 1.3226 0 0.273907 0.413425 0 0.299545 0.848595 0 0.299545 0.152146 0 0.394637 0.463713 0 0.394637 0.539606 0 0.404024 0.501659 0 0.409746 0.534107 0 0.409746 0.469212 0 0.150498 1.76408 0 0.315486 0.652204 0 0.150499 1.18778 0 0.315486 0.3405 0 0.336198 0.784735 0 0.338327 0.218312 0 0.413903 0.572976 0 0.413903 0.430343 0 0.42622 0.562641 0 0.42622 0.440677 0 0.256306 1.47626 0 0.270749 1.5575 0 0.270522 1.39498 0 0.269762 1.86415 0 0.379189 0.706331 0 0.269762 1.0877 0 0.379189 0.286374 0 0.443421 0.597744 0 0.443421 0.405575 0 0.312107 1.6289 0 0.31168 1.32346 0 0.45146 0.58382 0 0.45146 0.419499 0 0.414648 0.979558 0 0.460847 0.71744 0 0.414648 0.021183 0 0.460847 0.285879 0 0.429136 0.896357 0 0.429136 0.104384 0 0.375392 1.68186 0 0.374818 1.27033 0 0.44199 0.823725 0 0.44199 0.18145 0 0.41606 1.9174 0 0.457331 0.735131 0 0.41606 1.03445 0 0.457331 0.257574 0 0.479629 0.610922 0 0.479629 0.392396 0 0.482421 0.595089 0 0.482421 0.40823 0 0.452972 1.70997 0 0.452318 1.242 0 0.493903 1.47593 0 0.535488 1.70986 0 0.534835 1.24188 0 0.515369 0.595089 0 0.515369 0.40823 0 0.518161 0.610922 0 0.518161 0.392396 0 0.540489 0.735131 0 0.571747 1.9174 0 0.540489 0.257574 0 0.571747 1.03445 0 0.554572 0.823725 0 0.554572 0.18145 0 0.612989 1.68153 0 0.612415 1.27 0 0.567043 0.896357 0 0.567043 0.104384 0 0.536943 0.71744 0 0.581531 0.979558 0 0.536943 0.285879 0 0.581531 0.021183 0 0.54633 0.58382 0 0.54633 0.419499 0 0.676126 1.6284 0 0.6757 1.32295 0 0.554369 0.597744 0 0.55437 0.405575 0 0.618632 0.706331 0 0.718045 1.86415 0 0.618632 0.286374 0 0.718045 1.0877 0 0.717285 1.55688 0 0.717058 1.39435 0 0.7315 1.47559 0 0.57157 0.562641 0 0.57157 0.440677 0 0.583887 0.572976 0 0.583887 0.430343 0 0.660363 0.784735 0 0.660364 0.216183 0 0.682334 0.652204 0 0.837308 1.76408 0 0.682334 0.340501 0 0.837308 1.18778 0 0.588044 0.534107 0 0.588044 0.469212 0 0.593766 0.501659 0 0.603153 0.539606 0 0.603153 0.463713 0 0.696634 0.848595 0 0.696634 0.152146 0 0.723913 0.579279 0 0.915152 1.62925 0 0.723913 0.413426 0 0.915152 1.3226 0 0.609844 0.501659 0 0.738353 0.496352 0 0.942187 1.47593 0 0.60845 0.691413 0 0.738349 0.921761 0 0.60845 0.311905 0 0.73835 0.07898 0 0.750864 0.713585 0 0.750864 0.289462 0 0.802277 0.758833 0 0.802277 0.241908 0 0.809283 0.612728 0 0.807155 0.38819 0 0.828833 0.500459 0 0.666743 0.6425 0 0.866189 0.813138 0 0.666743 0.360819 0 0.866189 0.187604 0 0.87123 0.637895 0 0.87123 0.362846 0 0.895177 0.500371 0 0.70479 0.576599 0 0.94963 0.666791 0 0.70479 0.42672 0 0.94963 0.333951 0 0.718004 0.501659 0 0.978609 0.500371 0</float_array>
          <technique_common>
            <accessor source="#Object02-mesh-map-channel1-array" count="163" stride="3">
              <param name="S" type="float"/>
              <param name="T" type="float"/>
              <param name="P" type="float"/>
            </accessor>
          </technique_common>
        </source>
        <vertices id="Object02-mesh-vertices">
          <input semantic="POSITION" source="#Object02-mesh-positions"/>
        </vertices>
        <triangles material="Standardmaterial" count="196">
          <input semantic="VERTEX" source="#Object02-mesh-vertices" offset="0"/>
          <input semantic="NORMAL" source="#Object02-mesh-normals" offset="1"/>
          <input semantic="TEXCOORD" source="#Object02-mesh-map-channel1" offset="2" set="1"/>
          <p>123 0 160 125 1 162 119 2 156 121 3 158 119 2 156 125 1 162 119 2 156 121 3 158 117 4 154 114 5 151 117 4 154 121 3 158 117 4 154 114 5 151 108 6 145 103 7 140 108 6 145 114 5 151 108 6 145 103 7 140 96 8 130 74 9 99 96 8 130 103 7 140 96 8 130 74 9 99 71 10 96 49 11 61 71 10 96 74 9 99 71 10 96 49 11 61 53 12 65 20 13 20 53 12 65 49 11 61 53 12 65 20 13 20 28 14 31 9 15 9 28 14 31 20 13 20 28 14 31 9 15 9 16 16 16 2 17 2 16 16 16 9 15 9 16 16 16 2 17 2 8 18 8 0 19 0 8 18 8 2 17 2 8 18 8 0 19 0 6 20 6 4 21 4 6 20 6 0 19 0 6 20 6 4 21 4 7 22 7 11 23 11 7 22 7 4 21 4 7 22 7 11 23 11 17 24 17 22 25 22 17 24 17 11 23 11 17 24 17 22 25 22 29 26 32 51 27 63 29 26 32 22 25 22 29 26 32 51 27 63 54 28 66 54 28 66 51 27 63 72 29 97 76 30 101 72 29 97 51 27 63 72 29 97 76 30 101 97 31 131 105 32 142 97 31 131 76 30 101 116 33 153 97 31 131 105 32 142 97 31 131 116 33 153 109 34 146 123 0 160 109 34 146 116 33 153 109 34 146 123 0 160 118 35 155 119 2 156 118 35 155 123 0 160 118 35 155 119 2 156 111 36 148 111 36 148 119 2 156 112 37 149 117 4 154 112 37 149 119 2 156 112 37 149 117 4 154 110 38 147 108 6 145 110 38 147 117 4 154 110 38 147 108 6 145 106 39 143 96 8 130 106 39 143 108 6 145 106 39 143 96 8 130 87 40 119 71 10 96 87 40 119 96 8 130 87 40 119 71 10 96 69 41 92 53 12 65 69 41 92 71 10 96 69 41 92 53 12 65 55 42 69 28 14 31 55 42 69 53 12 65 55 42 69 28 14 31 37 43 42 16 16 16 37 43 42 28 14 31 37 43 42 16 16 16 18 44 18 8 18 8 18 44 18 16 16 16 18 44 18 8 18 8 14 45 14 6 20 6 14 45 14 8 18 8 14 45 14 6 20 6 13 46 13 7 22 7 13 46 13 6 20 6 13 46 13 7 22 7 15 47 15 17 24 17 15 47 15 7 22 7 15 47 15 17 24 17 19 48 19 29 26 32 19 48 19 17 24 17 19 48 19 29 26 32 38 49 43 54 28 66 38 49 43 29 26 32 38 49 43 54 28 66 56 50 70 72 29 97 56 50 70 54 28 66 56 50 70 72 29 97 70 51 93 97 31 131 70 51 93 72 29 97 70 51 93 97 31 131 88 52 120 109 34 146 88 52 120 97 31 131 88 52 120 109 34 146 107 53 144 118 35 155 107 53 144 109 34 146 111 36 148 107 53 144 118 35 155 107 53 144 111 36 148 99 54 134 99 54 134 111 36 148 101 55 137 112 37 149 101 55 137 111 36 148 101 55 137 112 37 149 98 56 132 110 38 147 98 56 132 112 37 149 98 56 132 110 38 147 89 57 121 106 39 143 89 57 121 110 38 147 89 57 121 106 39 143 81 58 108 87 40 119 81 58 108 106 39 143 81 58 108 87 40 119 67 59 88 69 41 92 67 59 88 87 40 119 67 59 88 69 41 92 57 60 72 55 42 69 57 60 72 69 41 92 57 60 72 55 42 69 43 61 52 37 43 42 43 61 52 55 42 69 43 61 52 37 43 42 35 62 39 18 44 18 35 62 39 37 43 42 35 62 39 18 44 18 26 63 28 14 45 14 26 63 28 18 44 18 26 63 28 14 45 14 24 64 25 13 46 13 24 64 25 14 45 14 24 64 25 13 46 13 27 65 30 15 47 15 27 65 30 13 46 13 27 65 30 15 47 15 36 66 41 19 48 19 36 66 41 15 47 15 36 66 41 19 48 19 44 67 54 38 49 43 44 67 54 19 48 19 44 67 54 38 49 43 58 68 74 56 50 70 58 68 74 38 49 43 58 68 74 56 50 70 68 69 90 70 51 93 68 69 90 56 50 70 68 69 90 70 51 93 82 70 110 88 52 120 82 70 110 70 51 93 82 70 110 88 52 120 90 71 123 107 53 144 90 71 123 88 52 120 90 71 123 107 53 144 99 54 134 48 72 60 64 73 85 62 74 78 64 73 85 48 72 60 78 75 103 42 76 47 78 75 103 48 72 60 78 75 103 42 76 47 84 77 116 34 78 37 84 77 116 42 76 47 84 77 116 34 78 37 92 79 126 32 80 35 92 79 126 34 78 37 92 79 126 32 80 35 93 81 127 33 82 36 93 81 127 32 80 35 93 81 127 33 82 36 91 83 125 41 84 46 91 83 125 33 82 36 91 83 125 41 84 46 83 85 115 47 86 59 83 85 115 41 84 46 83 85 115 47 86 59 77 87 102 61 88 77 77 87 102 47 86 59 77 87 102 61 88 77 63 89 84 59 90 75 63 89 84 61 88 77 65 91 86 63 89 84 59 90 75 63 89 84 65 91 86 77 87 102 79 92 106 77 87 102 65 91 86 77 87 102 79 92 106 83 85 115 85 93 117 83 85 115 79 92 106 83 85 115 85 93 117 91 83 125 94 94 128 91 83 125 85 93 117 91 83 125 94 94 128 93 81 127 100 95 136 93 81 127 94 94 128 93 81 127 100 95 136 92 79 126 95 96 129 92 79 126 100 95 136 92 79 126 95 96 129 84 77 116 86 97 118 84 77 116 95 96 129 84 77 116 86 97 118 78 75 103 80 98 107 78 75 103 86 97 118 78 75 103 80 98 107 64 73 85 66 99 87 64 73 85 80 98 107 64 73 85 66 99 87 62 74 78 60 100 76 62 74 78 66 99 87 62 74 78 60 100 76 48 72 60 46 101 56 48 72 60 60 100 76 48 72 60 46 101 56 42 76 47 40 102 45 42 76 47 46 101 56 42 76 47 40 102 45 34 78 37 30 103 33 34 78 37 40 102 45 34 78 37 30 103 33 32 80 35 25 104 26 32 80 35 30 103 33 32 80 35 25 104 26 33 82 36 31 105 34 33 82 36 25 104 26 33 82 36 31 105 34 41 84 46 39 106 44 41 84 46 31 105 34 41 84 46 39 106 44 47 86 59 45 107 55 47 86 59 39 106 44 47 86 59 45 107 55 61 88 77 61 88 77 45 107 55 59 90 75 21 108 21 59 90 75 45 107 55 50 109 62 59 90 75 21 108 21 59 90 75 50 109 62 65 91 86 73 110 98 65 91 86 50 109 62 65 91 86 73 110 98 79 92 106 102 111 139 79 92 106 73 110 98 79 92 106 102 111 139 85 93 117 113 112 150 85 93 117 102 111 139 85 93 117 113 112 150 94 94 128 120 113 157 94 94 128 113 112 150 94 94 128 120 113 157 100 95 136 124 114 161 100 95 136 120 113 157 100 95 136 124 114 161 95 96 129 122 115 159 95 96 129 124 114 161 95 96 129 122 115 159 86 97 118 115 116 152 86 97 118 122 115 159 86 97 118 115 116 152 80 98 107 104 117 141 80 98 107 115 116 152 80 98 107 104 117 141 66 99 87 75 118 100 66 99 87 104 117 141 66 99 87 75 118 100 60 100 76 52 119 64 60 100 76 75 118 100 60 100 76 52 119 64 46 101 56 23 120 23 46 101 56 52 119 64 46 101 56 23 120 23 40 102 45 12 121 12 40 102 45 23 120 23 40 102 45 12 121 12 30 103 33 5 122 5 30 103 33 12 121 12 30 103 33 5 122 5 25 104 26 1 123 1 25 104 26 5 122 5 25 104 26 1 123 1 31 105 34 3 124 3 31 105 34 1 123 1 31 105 34 3 124 3 39 106 44 10 125 10 39 106 44 3 124 3 39 106 44 10 125 10 45 107 55 21 108 21 45 107 55 10 125 10</p>
        </triangles>
      </mesh>
    </geometry>
    <geometry id="Object01-mesh" name="Object01">
      <mesh>
        <source id="Object01-mesh-positions">
          <float_array id="Object01-mesh-positions-array" count="267">-0.648359 -27.96 7.54344 -0.648359 -27.96 7.54344 -0.648362 -27.96 -7.53138 -0.648362 -27.96 -7.53138 -7.95018 -27.8818 7.52246 -7.95018 -27.8817 -7.5104 6.56115 -22.3707 6.04577 6.56115 -22.3707 -6.03371 -0.648356 -20.4226 20.5986 -0.648356 -20.4226 20.5986 -0.648363 -20.4226 -20.5866 -0.648363 -20.4226 -20.5866 -0.648363 -20.4226 -20.5866 -7.95018 -20.3653 20.5413 -7.95018 -20.3653 -20.5292 6.56115 -16.3309 -16.4948 6.56115 -16.3309 -16.4948 6.56115 -16.3309 16.5069 -21.9171 -13.8559 3.76425 -21.9171 -13.8559 -3.75218 6.56115 -11.3869 -3.08989 6.56115 -11.3869 3.10309 67.3105 -11.3869 -3.08989 67.3105 -11.3869 3.10309 -21.9171 -10.0977 10.2737 -21.9171 -10.0977 -10.2616 6.56115 -8.29039 8.46637 67.3105 -8.29039 8.46637 6.56115 -8.29039 -8.45317 6.56115 -8.29039 -8.45317 67.3105 -8.29039 -8.45317 67.3105 -8.29039 -8.45317 -0.648363 -7.36747 -28.124 -0.648363 -7.36747 -28.124 -0.648354 -7.36746 28.136 -0.648354 -7.36746 28.136 -7.95018 -7.34649 -28.0457 -7.95017 -7.34648 28.0577 6.56115 -5.86979 -22.5346 6.56115 -5.86979 22.5466 -21.9171 -3.58827 -14.0198 -21.9171 -3.58826 14.0319 6.56115 -2.92711 11.5629 67.3105 -2.92711 11.5629 67.3105 -2.92711 -11.5497 6.56115 -2.92711 -11.5497 -25.6423 0.169951 0.006036 6.56115 3.26587 11.5629 67.3105 3.26587 11.5629 6.56115 3.26587 -11.5497 67.3105 3.26587 -11.5497 -21.9171 3.92816 -14.0198 -21.9171 3.92817 14.0319 6.56115 6.20969 -22.5346 6.56115 6.20969 22.5466 -7.95018 7.68638 -28.0457 -7.95017 7.68638 28.0577 -0.648361 7.70736 -28.124 -0.648361 7.70736 -28.124 -0.648353 7.70736 28.136 -0.648353 7.70736 28.136 6.56115 8.62915 8.46637 67.3105 8.62915 8.46637 6.56115 8.62915 -8.45316 67.3105 8.62915 -8.45316 -21.9171 10.4376 10.2737 -21.9171 10.4376 -10.2616 6.56115 11.7256 3.1031 67.3105 11.7256 3.1031 6.56115 11.7256 -3.08988 67.3105 11.7256 -3.08988 -21.9171 14.1958 3.76425 -21.9171 14.1958 -3.75218 6.56115 16.6708 16.5069 6.56115 16.6708 -16.4948 -7.95018 20.7052 -20.5292 -7.95017 20.7052 20.5413 -0.648353 20.7625 20.5986 -0.648353 20.7625 20.5986 -0.648359 20.7625 -20.5866 -0.648359 20.7625 -20.5866 6.56115 22.7106 6.04577 6.56115 22.7106 -6.03371 -7.95017 28.2216 7.52247 -7.95018 28.2217 -7.51039 -0.648354 28.2999 7.54345 -0.648354 28.2999 7.54345 -0.648356 28.2999 -7.53137 -0.648356 28.2999 -7.53137</float_array>
          <technique_common>
            <accessor source="#Object01-mesh-positions-array" count="89" stride="3">
              <param name="X" type="float"/>
              <param name="Y" type="float"/>
              <param name="Z" type="float"/>
            </accessor>
          </technique_common>
        </source>
        <source id="Object01-mesh-normals">
          <float_array id="Object01-mesh-normals-array" count="267">0 -0.258819 -0.965926 0.770262 -0.165056 -0.615998 0 0.258819 -0.965926 0.770262 0.165056 -0.615998 0 0.707107 -0.707107 0.770262 0.450942 -0.450941 0 0.965926 -0.258819 0.770262 0.615998 -0.165056 0 0.965926 0.258819 0.770262 0.615998 0.165056 0 0.707107 0.707107 0.770262 0.450942 0.450942 0 0.258819 0.965926 0.770262 0.165056 0.615998 0 -0.258819 0.965926 0.770262 -0.165056 0.615998 0 -0.707107 0.707107 0.770262 -0.450942 0.450941 0 -0.965926 0.258819 0.770262 -0.615998 0.165056 0 -0.965926 -0.258819 0.770262 -0.615998 -0.165056 0 -0.866025 -0.5 0.759269 -0.563589 -0.325389 0.873213 -0.470734 -0.126133 0.865855 -0.433268 -0.250148 0.612709 -0.684427 -0.395154 0.625944 -0.753295 -0.201845 0.625944 -0.753295 0.201844 0.873213 -0.470734 0.126133 0.625944 -0.55145 0.55145 0.873213 -0.344601 0.344601 0.625944 -0.201845 0.753295 0.873212 -0.126133 0.470734 0.625944 0.201845 0.753294 0.873213 0.126133 0.470734 0.625944 0.55145 0.55145 0.873213 0.344601 0.344601 0.625944 0.753294 0.201845 0.873213 0.470734 0.126133 0.625944 0.753294 -0.201845 0.873213 0.470734 -0.126133 0.625944 0.55145 -0.55145 0.873213 0.344601 -0.344601 0.625944 0.201845 -0.753295 0.873213 0.126133 -0.470734 0.625944 -0.201845 -0.753295 0.873212 -0.126133 -0.470734 0.612709 -0.395154 -0.684427 0.865868 -0.250136 -0.433249 0.759244 -0.325403 -0.563614 0 -0.5 -0.866025 -1 0 0 -0.85545 -0.500239 -0.134039 -0.85545 -0.500239 0.134039 -0.85545 -0.3662 -0.3662 -0.85545 -0.134038 -0.500238 -0.85545 0.134039 -0.500239 -0.85545 0.3662 -0.3662 -0.85545 0.500239 -0.134038 -0.85545 0.500239 0.134039 -0.85545 0.3662 0.3662 -0.85545 0.134039 0.500239 -0.85545 -0.134038 0.500239 -0.85545 -0.3662 0.3662 -0.375248 -0.89534 0.239906 -0.375249 -0.89534 -0.239906 -0.375248 -0.655434 -0.655434 -0.375249 -0.239906 -0.89534 -0.375249 0.239906 -0.89534 -0.375248 0.655435 -0.655434 -0.375248 0.89534 -0.239905 -0.375248 0.89534 0.239906 -0.375248 0.655435 0.655435 -0.375248 0.239906 0.89534 -0.375248 -0.239906 0.89534 -0.375248 -0.655434 0.655434 -0.0111 -0.707063 0.707063 -0.0111 -0.258803 0.965866 -0.0111 0.258803 0.965866 -0.011099 0.707063 0.707063 -0.0111 0.965866 0.258803 -0.0111 0.965866 -0.258803 -0.0111 0.707063 -0.707063 -0.0111 0.258803 -0.965866 -0.0111 -0.258803 -0.965866 -0.0111 -0.707063 -0.707063 -0.0111 -0.965866 -0.258803 -0.0111 -0.965866 0.258803</float_array>
          <technique_common>
            <accessor source="#Object01-mesh-normals-array" count="89" stride="3">
              <param name="X" type="float"/>
              <param name="Y" type="float"/>
              <param name="Z" type="float"/>
            </accessor>
          </technique_common>
        </source>
        <source id="Object01-mesh-map-channel1">
          <float_array id="Object01-mesh-map-channel1-array" count="267">0.167947 0.107501 0 0.963429 0.934704 0 0.167947 0.06344 0 0.980616 0.934704 0 0.157463 0.104692 0 0.157463 0.066249 0 0.963429 0.987315 0 0.980616 0.987315 0 0.145916 0.145658 0 0.946172 0.934704 0 0.145916 0.025282 0 0.790514 0.934673 0 0.998117 0.934704 0 0.138242 0.137984 0 0.138242 0.032957 0 0.790514 0.987137 0 0.998117 0.987315 0 0.946172 0.987315 0 0.121596 0.095081 0 0.121596 0.07586 0 0.980599 0.996151 0 0.963437 0.996146 0 0.980599 1.11431 0 0.963292 1.11432 0 0.111985 0.111727 0 0.111985 0.059214 0 0.946158 0.996145 0 0.946 1.11432 0 0.790465 0.996138 0 0.998099 0.996146 0 0.790393 1.11432 0 0.997889 1.11432 0 0.107759 0.003252 0 0.807685 0.934673 0 0.107759 0.167689 0 0.929004 0.934704 0 0.10495 0.013736 0 0.10495 0.157205 0 0.807685 0.987137 0 0.929004 0.987315 0 0.095339 0.049603 0 0.095339 0.121338 0 0.929009 0.996141 0 0.928692 1.11432 0 0.807698 1.11432 0 0.807698 0.996129 0 0.085728 0.08547 0 0.911476 0.996138 0 0.911434 1.11432 0 0.825269 0.996123 0 0.824951 1.11432 0 0.076118 0.049603 0 0.076118 0.121338 0 0.825264 0.987137 0 0.911502 0.987315 0 0.066507 0.013736 0 0.066507 0.157205 0 0.063698 0.003252 0 0.825264 0.934673 0 0.063698 0.167689 0 0.911502 0.934704 0 0.894275 0.996136 0 0.894132 1.11432 0 0.841995 0.996121 0 0.842315 1.11432 0 0.059472 0.111727 0 0.059472 0.059214 0 0.876601 0.996129 0 0.876892 1.11432 0 0.859211 0.996123 0 0.859615 1.11432 0 0.049861 0.095081 0 0.049861 0.07586 0 0.894228 0.987315 0 0.842015 0.987226 0 0.033215 0.032957 0 0.033215 0.137984 0 0.02554 0.145658 0 0.894228 0.934704 0 0.02554 0.025282 0 0.842015 0.934689 0 0.876608 0.987315 0 0.859218 0.987315 0 0.013994 0.104692 0 0.013994 0.066249 0 0.00351 0.107501 0 0.876608 0.934704 0 0.00351 0.06344 0 0.859218 0.934704 0</float_array>
          <technique_common>
            <accessor source="#Object01-mesh-map-channel1-array" count="89" stride="3">
              <param name="S" type="float"/>
              <param name="T" type="float"/>
              <param name="P" type="float"/>
            </accessor>
          </technique_common>
        </source>
        <vertices id="Object01-mesh-vertices">
          <input semantic="POSITION" source="#Object01-mesh-positions"/>
        </vertices>
        <triangles material="Standardmaterial" count="132">
          <input semantic="VERTEX" source="#Object01-mesh-vertices" offset="0"/>
          <input semantic="NORMAL" source="#Object01-mesh-normals" offset="1"/>
          <input semantic="TEXCOORD" source="#Object01-mesh-map-channel1" offset="2" set="1"/>
          <p>44 0 44 45 1 45 50 2 50 49 3 49 50 2 50 45 1 45 50 2 50 49 3 49 64 4 64 63 5 63 64 4 64 49 3 49 64 4 64 63 5 63 70 6 70 69 7 69 70 6 70 63 5 63 70 6 70 69 7 69 68 8 68 67 9 67 68 8 68 69 7 69 68 8 68 67 9 67 62 10 62 61 11 61 62 10 62 67 9 67 62 10 62 61 11 61 48 12 48 47 13 47 48 12 48 61 11 61 48 12 48 47 13 47 43 14 43 42 15 42 43 14 43 47 13 47 43 14 43 42 15 42 27 16 27 26 17 26 27 16 27 42 15 42 27 16 27 26 17 26 23 18 23 21 19 21 23 18 23 26 17 26 23 18 23 21 19 21 22 20 22 20 21 20 22 20 22 21 19 21 22 20 22 20 21 20 31 22 31 31 22 31 20 21 20 29 23 29 7 24 7 29 23 29 20 21 20 29 23 29 7 24 7 16 25 16 12 26 12 16 25 16 3 27 3 7 24 7 3 27 3 16 25 16 3 27 3 7 24 7 1 28 1 6 29 6 1 28 1 7 24 7 1 28 1 6 29 6 9 30 9 17 31 17 9 30 9 6 29 6 9 30 9 17 31 17 35 32 35 39 33 39 35 32 35 17 31 17 35 32 35 39 33 39 60 34 60 54 35 54 60 34 60 39 33 39 60 34 60 54 35 54 78 36 78 73 37 73 78 36 78 54 35 54 78 36 78 73 37 73 86 38 86 81 39 81 86 38 86 73 37 73 86 38 86 81 39 81 88 40 88 82 41 82 88 40 88 81 39 81 88 40 88 82 41 82 80 42 80 74 43 74 80 42 80 82 41 82 80 42 80 74 43 74 58 44 58 53 45 53 58 44 58 74 43 74 58 44 58 53 45 53 33 46 33 38 47 38 33 46 33 53 45 53 33 46 33 38 47 38 11 48 11 11 48 11 38 47 38 15 49 15 45 1 45 15 49 15 38 47 38 15 49 15 45 1 45 28 50 28 44 0 44 28 50 28 45 1 45 28 50 28 44 0 44 30 51 30 21 19 21 7 24 7 20 21 20 7 24 7 21 19 21 6 29 6 6 29 6 21 19 21 17 31 17 26 17 26 17 31 17 21 19 21 42 15 42 17 31 17 26 17 26 17 31 17 42 15 42 39 33 39 39 33 39 42 15 42 54 35 54 47 13 47 54 35 54 42 15 42 54 35 54 47 13 47 73 37 73 61 11 61 73 37 73 47 13 47 73 37 73 61 11 61 81 39 81 67 9 67 81 39 81 61 11 61 69 7 69 81 39 81 67 9 67 81 39 81 69 7 69 82 41 82 82 41 82 69 7 69 74 43 74 63 5 63 74 43 74 69 7 69 49 3 49 74 43 74 63 5 63 74 43 74 49 3 49 53 45 53 45 1 45 53 45 53 49 3 49 53 45 53 45 1 45 38 47 38 46 52 46 19 53 19 18 54 18 19 53 19 46 52 46 25 55 25 25 55 25 46 52 46 40 56 40 40 56 40 46 52 46 51 57 51 51 57 51 46 52 46 66 58 66 66 58 66 46 52 46 72 59 72 72 59 72 46 52 46 71 60 71 71 60 71 46 52 46 65 61 65 65 61 65 46 52 46 52 62 52 52 62 52 46 52 46 41 63 41 41 63 41 46 52 46 24 64 24 18 54 18 24 64 24 46 52 46 24 64 24 18 54 18 4 65 4 4 65 4 18 54 18 5 66 5 19 53 19 5 66 5 18 54 18 5 66 5 19 53 19 14 67 14 25 55 25 14 67 14 19 53 19 40 56 40 14 67 14 25 55 25 14 67 14 40 56 40 36 68 36 51 57 51 36 68 36 40 56 40 36 68 36 51 57 51 55 69 55 66 58 66 55 69 55 51 57 51 55 69 55 66 58 66 75 70 75 75 70 75 66 58 66 84 71 84 72 59 72 84 71 84 66 58 66 84 71 84 72 59 72 83 72 83 71 60 71 83 72 83 72 59 72 83 72 83 71 60 71 76 73 76 65 61 65 76 73 76 71 60 71 52 62 52 76 73 76 65 61 65 76 73 76 52 62 52 56 74 56 41 63 41 56 74 56 52 62 52 56 74 56 41 63 41 37 75 37 24 64 24 37 75 37 41 63 41 37 75 37 24 64 24 13 76 13 4 65 4 13 76 13 24 64 24 8 77 8 13 76 13 4 65 4 13 76 13 8 77 8 37 75 37 34 78 34 37 75 37 8 77 8 37 75 37 34 78 34 56 74 56 59 79 59 56 74 56 34 78 34 56 74 56 59 79 59 76 73 76 77 80 77 76 73 76 59 79 59 85 81 85 76 73 76 77 80 77 76 73 76 85 81 85 83 72 83 87 82 87 83 72 83 85 81 85 83 72 83 87 82 87 84 71 84 79 83 79 84 71 84 87 82 87 84 71 84 79 83 79 75 70 75 75 70 75 79 83 79 55 69 55 57 84 57 55 69 55 79 83 79 55 69 55 57 84 57 36 68 36 32 85 32 36 68 36 57 84 57 36 68 36 32 85 32 14 67 14 10 86 10 14 67 14 32 85 32 2 87 2 14 67 14 10 86 10 14 67 14 2 87 2 5 66 5 0 88 0 5 66 5 2 87 2 5 66 5 0 88 0 4 65 4 8 77 8 4 65 4 0 88 0</p>
        </triangles>
      </mesh>
    </geometry>
    <geometry id="Object03-mesh" name="Object03">
      <mesh>
        <source id="Object03-mesh-positions">
          <float_array id="Object03-mesh-positions-array" count="111">100.044 -36.1021 -0.00001 100.044 -33.9146 12.4057 100.044 -33.9146 -12.4057 100.044 -27.6161 23.3151 100.044 -27.6161 -23.3151 103.628 -21.1544 -0.000008 103.628 -19.8684 7.29332 103.628 -19.8684 -7.29333 100.044 -17.9661 31.4124 100.044 -17.9661 -31.4124 103.628 -16.1655 13.707 103.628 -16.1655 -13.707 103.628 -10.4923 18.4673 103.628 -10.4923 -18.4673 100.044 -6.12875 35.7208 100.044 -6.12873 -35.7208 103.628 -3.53312 21.0003 103.628 -3.53311 -21.0003 106.806 0.169802 -0.000007 103.628 3.87272 21.0003 103.628 3.87272 -21.0003 100.044 6.46834 35.7208 100.044 6.46835 -35.7208 103.628 10.8319 18.4673 103.628 10.8319 -18.4673 103.628 16.5051 13.707 103.628 16.5051 -13.707 100.044 18.3057 31.4124 100.044 18.3057 -31.4124 103.628 20.208 7.29332 103.628 20.208 -7.29332 103.628 21.4941 -0.000005 100.044 27.9557 23.3151 100.044 27.9557 -23.3151 100.044 34.2542 12.4057 100.044 34.2542 -12.4057 100.044 36.4417 -0.000004</float_array>
          <technique_common>
            <accessor source="#Object03-mesh-positions-array" count="37" stride="3">
              <param name="X" type="float"/>
              <param name="Y" type="float"/>
              <param name="Z" type="float"/>
            </accessor>
          </technique_common>
        </source>
        <source id="Object03-mesh-normals">
          <float_array id="Object03-mesh-normals-array" count="111">0.980777 0.033883 0.192166 0.980777 -0.033884 0.192166 1 -0.000000 0 0.980777 -0.097565 0.168988 0.980777 -0.149479 0.125428 0.980777 -0.183363 0.066738 0.980777 0.195131 0 0.97243 0.233193 0 0.972431 0.219129 0.079756 0.972431 0.21913 -0.079756 0.980777 0.183363 -0.066738 0.972431 0.178636 -0.149893 0.980777 0.097565 -0.168988 0.980777 0.149479 -0.125428 0.980777 0.033883 -0.192166 0.980777 -0.033884 -0.192166 0.980777 -0.097565 -0.168988 0.980777 -0.149479 -0.125428 0.980777 -0.183363 -0.066738 0.972431 -0.219129 -0.079756 0.980777 -0.195131 0 0.972431 -0.233192 0 0.972431 -0.219129 0.079756 0.972431 -0.178636 -0.149893 0.972431 -0.116596 -0.201951 0.972431 -0.040493 -0.22965 0.972431 0.040493 -0.22965 0.972431 0.116596 -0.201951 0.980777 0.183363 0.066738 0.972431 0.178636 0.149893 0.980777 0.097565 0.168988 0.972431 0.116596 0.201951 0.972431 0.040493 0.22965 0.980777 0.149479 0.125428 0.972431 -0.040493 0.22965 0.972431 -0.116596 0.201951 0.972431 -0.178636 0.149893</float_array>
          <technique_common>
            <accessor source="#Object03-mesh-normals-array" count="37" stride="3">
              <param name="X" type="float"/>
              <param name="Y" type="float"/>
              <param name="Z" type="float"/>
            </accessor>
          </technique_common>
        </source>
        <source id="Object03-mesh-map-channel1">
          <float_array id="Object03-mesh-map-channel1-array" count="489">0.017569 0.500371 0 0.279786 0.501659 0 0.046548 0.66679 0 0.293 0.576599 0 0.046548 0.33395 0 0.293 0.426719 0 0.101001 0.500371 0 0.124949 0.362846 0 0.124949 0.637895 0 0.12999 0.813138 0 0.331048 0.6425 0 0.12999 0.187603 0 0.331048 0.360819 0 0.174115 0.500459 0 0.193665 0.612728 0 0.193665 0.388189 0 0.193902 0.758832 0 0.193902 0.241908 0 0.249955 0.711456 0 0.249955 0.289461 0 0.257829 0.921761 0 0.38934 0.691413 0 0.25783 0.07898 0 0.389341 0.311905 0 0.04562 1.47593 0 0.259467 0.496352 0 0.387946 0.501659 0 0.072654 1.62925 0 0.273907 0.579279 0 0.072654 1.3226 0 0.273907 0.413425 0 0.299545 0.848595 0 0.299545 0.152146 0 0.394637 0.463713 0 0.394637 0.539606 0 0.404024 0.501659 0 0.409746 0.534107 0 0.409746 0.469212 0 0.150498 1.76408 0 0.315486 0.652204 0 0.150499 1.18778 0 0.315486 0.3405 0 0.336198 0.784735 0 0.338327 0.218312 0 0.413903 0.572976 0 0.413903 0.430343 0 0.42622 0.562641 0 0.42622 0.440677 0 0.256306 1.47626 0 0.270749 1.5575 0 0.270522 1.39498 0 0.269762 1.86415 0 0.379189 0.706331 0 0.269762 1.0877 0 0.379189 0.286374 0 0.443421 0.597744 0 0.443421 0.405575 0 0.312107 1.6289 0 0.31168 1.32346 0 0.45146 0.58382 0 0.45146 0.419499 0 0.414648 0.979558 0 0.460847 0.71744 0 0.414648 0.021183 0 0.460847 0.285879 0 0.429136 0.896357 0 0.429136 0.104384 0 0.375392 1.68186 0 0.374818 1.27033 0 0.44199 0.823725 0 0.44199 0.18145 0 0.41606 1.9174 0 0.457331 0.735131 0 0.41606 1.03445 0 0.457331 0.257574 0 0.479629 0.610922 0 0.479629 0.392396 0 0.482421 0.595089 0 0.482421 0.40823 0 0.452972 1.70997 0 0.452318 1.242 0 0.493903 1.47593 0 0.535488 1.70986 0 0.534835 1.24188 0 0.515369 0.595089 0 0.515369 0.40823 0 0.518161 0.610922 0 0.518161 0.392396 0 0.540489 0.735131 0 0.571747 1.9174 0 0.540489 0.257574 0 0.571747 1.03445 0 0.554572 0.823725 0 0.554572 0.18145 0 0.612989 1.68153 0 0.612415 1.27 0 0.567043 0.896357 0 0.567043 0.104384 0 0.536943 0.71744 0 0.581531 0.979558 0 0.536943 0.285879 0 0.581531 0.021183 0 0.54633 0.58382 0 0.54633 0.419499 0 0.676126 1.6284 0 0.6757 1.32295 0 0.554369 0.597744 0 0.55437 0.405575 0 0.618632 0.706331 0 0.718045 1.86415 0 0.618632 0.286374 0 0.718045 1.0877 0 0.717285 1.55688 0 0.717058 1.39435 0 0.7315 1.47559 0 0.57157 0.562641 0 0.57157 0.440677 0 0.583887 0.572976 0 0.583887 0.430343 0 0.660363 0.784735 0 0.660364 0.216183 0 0.682334 0.652204 0 0.837308 1.76408 0 0.682334 0.340501 0 0.837308 1.18778 0 0.588044 0.534107 0 0.588044 0.469212 0 0.593766 0.501659 0 0.603153 0.539606 0 0.603153 0.463713 0 0.696634 0.848595 0 0.696634 0.152146 0 0.723913 0.579279 0 0.915152 1.62925 0 0.723913 0.413426 0 0.915152 1.3226 0 0.609844 0.501659 0 0.738353 0.496352 0 0.942187 1.47593 0 0.60845 0.691413 0 0.738349 0.921761 0 0.60845 0.311905 0 0.73835 0.07898 0 0.750864 0.713585 0 0.750864 0.289462 0 0.802277 0.758833 0 0.802277 0.241908 0 0.809283 0.612728 0 0.807155 0.38819 0 0.828833 0.500459 0 0.666743 0.6425 0 0.866189 0.813138 0 0.666743 0.360819 0 0.866189 0.187604 0 0.87123 0.637895 0 0.87123 0.362846 0 0.895177 0.500371 0 0.70479 0.576599 0 0.94963 0.666791 0 0.70479 0.42672 0 0.94963 0.333951 0 0.718004 0.501659 0 0.978609 0.500371 0</float_array>
          <technique_common>
            <accessor source="#Object03-mesh-map-channel1-array" count="163" stride="3">
              <param name="S" type="float"/>
              <param name="T" type="float"/>
              <param name="P" type="float"/>
            </accessor>
          </technique_common>
        </source>
        <vertices id="Object03-mesh-vertices">
          <input semantic="POSITION" source="#Object03-mesh-positions"/>
        </vertices>
        <triangles material="Standardmaterial1" count="54">
          <input semantic="VERTEX" source="#Object03-mesh-vertices" offset="0"/>
          <input semantic="NORMAL" source="#Object03-mesh-normals" offset="1"/>
          <input semantic="TEXCOORD" source="#Object03-mesh-map-channel1" offset="2" set="1"/>
          <p>19 0 82 16 1 79 18 2 81 12 3 67 18 2 81 16 1 79 10 4 57 18 2 81 12 3 67 18 2 81 10 4 57 6 5 49 31 6 114 36 7 138 34 8 133 36 7 138 31 6 114 35 9 135 30 10 113 35 9 135 31 6 114 35 9 135 30 10 113 33 11 124 18 2 81 24 12 95 26 13 105 24 12 95 18 2 81 20 14 83 17 15 80 20 14 83 18 2 81 18 2 81 13 16 68 17 15 80 13 16 68 18 2 81 11 17 58 7 18 50 11 17 58 18 2 81 11 17 58 7 18 50 2 19 29 5 20 48 2 19 29 7 18 50 2 19 29 5 20 48 0 21 24 1 22 27 0 21 24 5 20 48 2 19 29 4 23 40 11 17 58 9 24 53 11 17 58 4 23 40 11 17 58 9 24 53 13 16 68 15 25 73 13 16 68 9 24 53 13 16 68 15 25 73 17 15 80 22 26 91 17 15 80 15 25 73 17 15 80 22 26 91 20 14 83 28 27 111 20 14 83 22 26 91 20 14 83 28 27 111 24 12 95 33 11 124 24 12 95 28 27 111 24 12 95 33 11 124 26 13 105 30 10 113 26 13 105 33 11 124 26 13 105 30 10 113 18 2 81 31 6 114 18 2 81 30 10 113 18 2 81 31 6 114 29 28 112 34 8 133 29 28 112 31 6 114 29 28 112 34 8 133 32 29 122 23 30 94 27 31 109 21 32 89 27 31 109 23 30 94 32 29 122 25 33 104 32 29 122 23 30 94 32 29 122 25 33 104 29 28 112 29 28 112 25 33 104 18 2 81 23 30 94 18 2 81 25 33 104 18 2 81 23 30 94 19 0 82 21 32 89 19 0 82 23 30 94 19 0 82 21 32 89 16 1 79 14 34 71 16 1 79 21 32 89 8 35 51 16 1 79 14 34 71 16 1 79 8 35 51 12 3 67 3 36 38 12 3 67 8 35 51 12 3 67 3 36 38 10 4 57 1 22 27 10 4 57 3 36 38 10 4 57 1 22 27 6 5 49 5 20 48 6 5 49 1 22 27 6 5 49 5 20 48 18 2 81 7 18 50 18 2 81 5 20 48</p>
        </triangles>
      </mesh>
    </geometry>
  </library_geometries>
  <library_visual_scenes>
    <visual_scene id="Spring.max" name="Spring_max">
      <node id="Object02-node" name="Object02" type="NODE">
        <translate>0 0 0</translate>
        <instance_geometry url="#Object02-mesh">
          <bind_material>
            <technique_common>
              <instance_material symbol="Standardmaterial" target="#Standardmaterial">
                <bind_vertex_input semantic="CHANNEL1" input_semantic="TEXCOORD" input_set="1"/>
              </instance_material>
            </technique_common>
          </bind_material>
        </instance_geometry>
      </node>
      <node id="Object01-node" name="Object01" type="NODE">
        <translate>0 0 0</translate>
        <instance_geometry url="#Object01-mesh">
          <bind_material>
            <technique_common>
              <instance_material symbol="Standardmaterial" target="#Standardmaterial">
                <bind_vertex_input semantic="CHANNEL1" input_semantic="TEXCOORD" input_set="1"/>
              </instance_material>
            </technique_common>
          </bind_material>
        </instance_geometry>
      </node>
      <node id="Object03-node" name="Object03" type="NODE">
        <translate>0 0 0</translate>
        <instance_geometry url="#Object03-mesh">
          <bind_material>
            <technique_common>
              <instance_material symbol="Standardmaterial1" target="#Standardmaterial1">
                <bind_vertex_input semantic="CHANNEL1" input_semantic="TEXCOORD" input_set="1"/>
              </instance_material>
            </technique_common>
          </bind_material>
        </instance_geometry>
      </node>
      <extra>
        <technique profile="FCOLLADA">
          <start_time>0</start_time>
          <end_time>3.33333</end_time>
        </technique>
      </extra>
      <extra>
        <technique profile="MAX3D">
          <frame_rate>30</frame_rate>
        </technique>
      </extra>
    </visual_scene>
  </library_visual_scenes>
  <scene>
    <instance_visual_scene url="#Spring.max"/>
  </scene>
</COLLADA>
